# Blender v3.4.1 OBJ File: ''
# www.blender.org
mtllib b.mtl
o Text.002_Text.003
v 0.118727 -0.658283 -0.457175
v 0.118727 0.705718 -0.457175
v 0.118727 0.529718 -0.261174
v 0.118727 0.063051 -0.261174
v 0.118727 -0.482283 -0.261174
v 0.118727 -0.452797 0.443759
v 0.118727 -0.636800 0.238864
v -0.118727 -0.658283 -0.457175
v -0.118727 0.705718 -0.457175
v -0.118727 0.529718 -0.261174
v -0.118727 0.121717 -0.261174
v -0.118727 -0.054283 -0.261174
v -0.118727 -0.482283 -0.261174
v -0.118727 -0.450722 0.458572
v -0.118727 -0.644674 0.189130
v -0.118727 -0.459443 0.175073
v 0.118727 -0.210452 0.480361
v 0.118727 -0.455165 0.183389
v -0.118727 -0.045684 0.409675
v 0.118727 -0.236023 0.285051
v -0.118727 -0.246261 0.286067
v 0.118727 0.078841 0.192262
v 0.118727 -0.069625 0.142017
v -0.118727 -0.073027 0.151592
v -0.118727 0.058345 0.158372
v 0.118727 0.199277 0.324193
v -0.118727 0.302626 0.374357
v 0.118727 0.387146 0.363979
v -0.118727 0.156806 0.098455
v 0.118727 0.161351 0.104751
v 0.118727 0.665175 0.203283
v -0.118727 0.671943 0.190574
v -0.118727 0.487156 0.123794
v 0.118727 0.491780 0.118972
vt 0.000000 0.000000
vt 0.485714 0.000000
vt 0.495238 0.000000
vt 0.746032 0.000000
vt 1.000000 0.000000
vt 0.945439 0.000000
vt 0.088772 0.000000
vt 0.040523 0.000000
vt 0.000000 0.000000
vt 0.495238 0.000000
vt 0.485714 0.000000
vt 0.742857 0.000000
vt 0.752381 0.000000
vt 1.000000 0.000000
vt 0.947856 0.000000
vt 0.091098 0.000000
vt 0.032574 0.000000
vt 0.870799 0.000000
vt 0.141775 0.000000
vt 0.867368 0.000000
vt 0.180235 0.000000
vt 0.800151 0.000000
vt 0.802757 0.000000
vt 0.235911 0.000000
vt 0.245285 0.000000
vt 0.675261 0.000000
vt 0.673316 0.000000
vt 0.312721 0.000000
vt 0.344051 0.000000
vt 0.367164 0.000000
vt 0.566667 0.000000
vt 0.564641 0.000000
vt 0.433529 0.000000
vt 0.435969 0.000000
vn 1.0000 0.0000 0.0000
vn -1.0000 -0.0000 -0.0000
vn 0.0352 -0.7436 0.6677
vn 0.0603 -0.1491 0.9870
vn 0.2685 0.6797 0.6826
vn 0.0000 0.0000 -1.0000
vn 0.1157 -0.2058 0.9717
vn 0.0000 -0.9998 0.0211
vn 0.0227 0.4617 -0.8867
vn -0.0950 -0.8079 0.5816
vn 0.0231 -0.6130 -0.7897
vn -0.2077 0.1172 0.9711
vn -0.0165 0.9951 -0.0971
vn -0.1331 0.9157 0.3791
vn -0.1289 -0.6569 0.7429
vn 0.0250 0.0765 -0.9968
vn -0.1186 0.4424 0.8890
vn 0.0171 -0.9938 -0.1099
vn 0.0000 0.9986 0.0521
vn 0.0125 -0.9989 -0.0454
vn 0.0000 0.9986 -0.0523
vn 0.0000 0.0000 1.0000
vn 0.0267 -0.9992 0.0308
vn -0.0220 0.4207 -0.9069
vn -0.0212 -0.6517 -0.7582
vn 0.2321 0.9394 -0.2524
vn -0.0325 -0.7382 0.6738
vn -0.0211 0.0430 -0.9989
vn -0.0321 0.5002 0.8653
vn 0.0000 -0.9951 -0.0993
vn 0.0252 0.9978 0.0613
vn 0.4249 -0.8599 -0.2830
vn -0.0158 0.9980 -0.0609
usemtl Red
s off
f 1/1/1 2/2/1 3/3/1
f 1/1/1 3/3/1 4/4/1
f 1/1/1 4/4/1 5/5/1
f 1/1/1 5/5/1 18/6/1
f 1/1/1 18/6/1 6/7/1
f 1/1/1 6/7/1 7/8/1
f 8/9/2 10/10/2 9/11/2
f 8/9/2 11/12/2 10/10/2
f 8/9/2 12/13/2 11/12/2
f 8/9/2 13/14/2 12/13/2
f 8/9/2 16/15/2 13/14/2
f 8/9/2 14/16/2 16/15/2
f 8/9/2 15/17/2 14/16/2
f 6/7/3 14/16/3 7/8/3
f 16/15/2 14/16/2 21/18/2
f 17/19/4 14/16/4 6/7/4
f 18/6/1 20/20/1 6/7/1
f 20/20/1 17/19/1 6/7/1
f 21/18/2 14/16/2 19/21/2
f 20/20/1 23/22/1 17/19/1
f 21/18/2 19/21/2 24/23/2
f 23/22/1 22/24/1 17/19/1
f 22/24/5 19/21/5 17/19/5
f 12/13/2 24/23/2 19/21/2
f 12/13/2 19/21/2 25/25/2
f 2/2/6 8/9/6 9/11/6
f 12/13/2 25/25/2 29/26/2
f 4/4/1 30/27/1 22/24/1
f 30/27/1 26/28/1 22/24/1
f 29/26/2 25/25/2 27/29/2
f 30/27/1 28/30/1 26/28/1
f 28/30/7 27/29/7 26/28/7
f 29/26/2 27/29/2 33/31/2
f 30/27/1 34/32/1 28/30/1
f 34/32/1 31/33/1 28/30/1
f 33/31/2 27/29/2 32/34/2
f 10/10/2 33/31/2 32/34/2
f 3/3/1 31/33/1 34/32/1
f 10/10/2 32/34/2 9/11/2
f 3/3/1 2/2/1 31/33/1
f 12/13/2 29/26/2 11/12/2
f 4/4/1 22/24/1 23/22/1
f 1/1/8 15/17/8 8/9/8
f 21/18/9 18/6/9 16/15/9
f 7/8/10 14/16/10 15/17/10
f 24/23/11 20/20/11 21/18/11
f 17/19/12 19/21/12 14/16/12
f 30/27/13 11/12/13 29/26/13
f 22/24/14 25/25/14 19/21/14
f 25/25/15 26/28/15 27/29/15
f 33/31/16 30/27/16 29/26/16
f 28/30/17 32/34/17 27/29/17
f 10/10/18 34/32/18 33/31/18
f 32/34/19 2/2/19 9/11/19
f 12/13/20 23/22/20 24/23/20
f 16/15/21 5/5/21 13/14/21
f 5/5/22 12/13/22 13/14/22
f 11/12/22 3/3/22 10/10/22
f 2/2/6 1/1/6 8/9/6
f 1/1/23 7/8/23 15/17/23
f 21/18/24 20/20/24 18/6/24
f 24/23/25 23/22/25 20/20/25
f 30/27/26 4/4/26 11/12/26
f 25/25/27 22/24/27 26/28/27
f 33/31/28 34/32/28 30/27/28
f 28/30/29 31/33/29 32/34/29
f 10/10/30 3/3/30 34/32/30
f 32/34/31 31/33/31 2/2/31
f 12/13/32 4/4/32 23/22/32
f 16/15/33 18/6/33 5/5/33
f 5/5/22 4/4/22 12/13/22
f 11/12/22 4/4/22 3/3/22
