# Blender v3.4.1 OBJ File: 'text.blend'
# www.blender.org
mtllib a2.mtl
o Text.001_Text.017
v 0.248474 -0.317888 0.039732
v 0.251335 -0.319543 -0.042560
v 0.134338 -0.337021 -0.018753
v 0.163190 -0.077711 0.040484
v 0.095331 -0.207286 -0.041139
v 0.097816 -0.207239 0.041320
v -0.082186 -0.206762 0.041127
v 0.057237 -0.096016 0.017962
v 0.009354 0.079461 -0.039635
v -0.060661 -0.106471 0.037524
v 0.072698 0.182285 0.040085
v 0.069604 0.187318 -0.036530
v -0.131882 -0.326965 0.040496
v -0.069846 0.171093 0.038175
v -0.198972 -0.337868 -0.045420
v -0.245823 -0.324627 0.040878
v -0.094229 -0.211625 -0.040043
v -0.065301 -0.108634 -0.038141
v -0.186697 -0.159433 -0.041065
v -0.000690 0.074059 0.038795
v -0.080334 0.147850 -0.041009
vn 0.9421 0.3344 0.0260
vn -0.2263 0.1204 0.9666
vn -0.0068 0.0032 -1.0000
vn -0.9551 -0.2860 -0.0772
vn 0.3085 0.5264 -0.7923
vn 0.9413 0.3373 0.0169
vn 0.9443 0.3286 -0.0165
vn 0.0261 0.0142 -0.9996
vn 0.9184 -0.3791 -0.1135
vn -0.0073 0.0081 0.9999
vn -0.0051 -0.0287 -0.9996
vn 0.6896 -0.5522 -0.4684
vn 0.0281 -0.0095 -0.9996
vn 0.0239 0.0227 -0.9995
vn -0.9448 0.3270 -0.0224
vn -0.0128 -0.0028 0.9999
vn -0.0132 -0.0030 0.9999
vn -0.0790 0.9945 0.0685
vn 0.0071 -0.0108 -0.9999
vn 0.1527 -0.9880 0.0252
vn -0.0005 0.2054 0.9787
vn -0.9586 -0.2832 0.0291
vn -0.1750 -0.1782 0.9683
vn -0.1637 -0.2153 -0.9627
vn -0.9422 -0.3036 -0.1416
vn 0.0184 0.0185 -0.9997
vn -0.0027 -0.9982 0.0602
vn 0.0032 -0.0066 1.0000
vn 0.1527 0.0027 0.9883
vn -0.0198 -0.9898 0.1411
vn -0.9420 0.3345 0.0266
vn 0.0229 -0.9997 -0.0001
vn -0.0921 0.9955 -0.0228
vn 0.0068 0.0414 -0.9991
vn -0.3381 -0.4720 0.8142
vn -0.8719 0.0718 -0.4844
vn 0.9480 -0.3146 -0.0491
vn 0.9257 -0.3667 0.0933
vn -0.2400 0.9396 -0.2440
vn 0.1637 0.0003 0.9865
vn -0.0131 -0.0030 0.9999
vn 0.0111 0.0008 0.9999
usemtl Red
s off
f 2//1 4//1 1//1
f 8//2 6//2 4//2
f 2//3 5//3 9//3
f 9//4 5//4 8//4
f 8//5 5//5 18//5
f 4//6 2//6 12//6
f 11//7 4//7 12//7
f 12//8 9//8 21//8
f 7//9 13//9 17//9
f 14//10 16//10 7//10
f 5//11 17//11 19//11
f 13//12 15//12 17//12
f 18//13 19//13 21//13
f 17//14 15//14 19//14
f 21//15 19//15 16//15
f 14//16 10//16 20//16
f 14//17 20//17 11//17
f 14//18 11//18 12//18
f 9//19 18//19 21//19
f 2//20 1//20 3//20
f 8//21 7//21 6//21
f 6//22 5//22 3//22
f 4//23 20//23 8//23
f 5//24 2//24 3//24
f 20//25 9//25 8//25
f 12//26 2//26 9//26
f 17//27 6//27 7//27
f 16//28 13//28 7//28
f 10//29 14//29 7//29
f 15//30 13//30 16//30
f 21//31 16//31 14//31
f 5//32 6//32 17//32
f 18//33 10//33 8//33
f 18//34 5//34 19//34
f 1//35 6//35 3//35
f 16//36 19//36 15//36
f 20//37 10//37 18//37
f 9//38 20//38 18//38
f 21//39 14//39 12//39
f 8//40 10//40 7//40
f 4//41 11//41 20//41
f 1//42 4//42 6//42
