# Blender v2.91.2 OBJ File: ''
# www.blender.org
mtllib p.mtl
o Text_Text.003
v 0.085616 0.060000 -0.264536
v 0.117857 0.060000 -0.259311
v 0.146812 0.060000 -0.250892
v 0.172528 0.060000 -0.239515
v 0.195049 0.060000 -0.225415
v 0.214421 0.060000 -0.208830
v 0.230689 0.060000 -0.189994
v 0.243898 0.060000 -0.169144
v 0.254093 0.060000 -0.146517
v 0.261320 0.060000 -0.122348
v 0.265622 0.060000 -0.096874
v 0.267046 0.060000 -0.070330
v 0.265538 0.060000 -0.044094
v 0.260982 0.060000 -0.019029
v 0.253328 0.060000 0.004655
v 0.242528 0.060000 0.026745
v 0.228534 0.060000 0.047029
v 0.211296 0.060000 0.065295
v 0.190767 0.060000 0.081333
v 0.166898 0.060000 0.094930
v 0.139640 0.060000 0.105874
v 0.108945 0.060000 0.113953
v 0.074763 0.060000 0.118956
v 0.037046 0.060000 0.120670
v -0.064954 0.060000 0.120670
v -0.064954 0.060000 0.415670
v -0.162954 0.060000 0.415670
v -0.162954 0.060000 -0.266330
v 0.050046 0.060000 -0.266330
v 0.046046 0.060000 0.032670
v 0.063743 0.060000 0.031864
v 0.080282 0.060000 0.029467
v 0.095593 0.060000 0.025514
v 0.109602 0.060000 0.020041
v 0.122236 0.060000 0.013081
v 0.133421 0.060000 0.004671
v 0.143086 0.060000 -0.005157
v 0.151157 0.060000 -0.016367
v 0.157562 0.060000 -0.028923
v 0.162227 0.060000 -0.042792
v 0.165079 0.060000 -0.057939
v 0.166046 0.060000 -0.074330
v 0.165464 0.060000 -0.086879
v 0.163634 0.060000 -0.099394
v 0.160437 0.060000 -0.111673
v 0.155750 0.060000 -0.123515
v 0.149452 0.060000 -0.134717
v 0.141421 0.060000 -0.145080
v 0.131537 0.060000 -0.154400
v 0.119676 0.060000 -0.162478
v 0.105718 0.060000 -0.169111
v 0.089542 0.060000 -0.174098
v 0.071025 0.060000 -0.177238
v 0.050046 0.060000 -0.178330
v -0.064954 0.060000 -0.178330
v -0.064954 0.060000 0.032670
v 0.085616 -0.060000 -0.264536
v 0.117857 -0.060000 -0.259311
v 0.146812 -0.060000 -0.250892
v 0.172528 -0.060000 -0.239515
v 0.195049 -0.060000 -0.225415
v 0.214421 -0.060000 -0.208830
v 0.230689 -0.060000 -0.189994
v 0.243898 -0.060000 -0.169144
v 0.254093 -0.060000 -0.146517
v 0.261320 -0.060000 -0.122348
v 0.265622 -0.060000 -0.096874
v 0.267046 -0.060000 -0.070330
v 0.265538 -0.060000 -0.044094
v 0.260982 -0.060000 -0.019029
v 0.253328 -0.060000 0.004655
v 0.242528 -0.060000 0.026745
v 0.228534 -0.060000 0.047029
v 0.211296 -0.060000 0.065295
v 0.190767 -0.060000 0.081333
v 0.166898 -0.060000 0.094930
v 0.139640 -0.060000 0.105874
v 0.108945 -0.060000 0.113953
v 0.074763 -0.060000 0.118956
v 0.037046 -0.060000 0.120670
v -0.064954 -0.060000 0.120670
v -0.064954 -0.060000 0.415670
v -0.162954 -0.060000 0.415670
v -0.162954 -0.060000 -0.266330
v 0.050046 -0.060000 -0.266330
v 0.046046 -0.060000 0.032670
v 0.063743 -0.060000 0.031864
v 0.080282 -0.060000 0.029467
v 0.095593 -0.060000 0.025514
v 0.109602 -0.060000 0.020041
v 0.122236 -0.060000 0.013081
v 0.133421 -0.060000 0.004671
v 0.143086 -0.060000 -0.005157
v 0.151157 -0.060000 -0.016367
v 0.157562 -0.060000 -0.028923
v 0.162227 -0.060000 -0.042792
v 0.165079 -0.060000 -0.057939
v 0.166046 -0.060000 -0.074330
v 0.165464 -0.060000 -0.086879
v 0.163634 -0.060000 -0.099394
v 0.160437 -0.060000 -0.111673
v 0.155750 -0.060000 -0.123515
v 0.149452 -0.060000 -0.134717
v 0.141421 -0.060000 -0.145080
v 0.131537 -0.060000 -0.154400
v 0.119676 -0.060000 -0.162478
v 0.105718 -0.060000 -0.169111
v 0.089542 -0.060000 -0.174098
v 0.071025 -0.060000 -0.177238
v 0.050046 -0.060000 -0.178330
v -0.064954 -0.060000 -0.178330
v -0.064954 -0.060000 0.032670
v 0.085616 -0.060000 -0.264536
v 0.085616 0.060000 -0.264536
v 0.117857 -0.060000 -0.259311
v 0.117857 0.060000 -0.259311
v 0.146812 -0.060000 -0.250892
v 0.146812 0.060000 -0.250892
v 0.172528 -0.060000 -0.239515
v 0.172528 0.060000 -0.239515
v 0.195049 -0.060000 -0.225415
v 0.195049 0.060000 -0.225415
v 0.214421 -0.060000 -0.208830
v 0.214421 0.060000 -0.208830
v 0.230689 -0.060000 -0.189994
v 0.230689 0.060000 -0.189994
v 0.243898 -0.060000 -0.169144
v 0.243898 0.060000 -0.169144
v 0.254093 -0.060000 -0.146517
v 0.254093 0.060000 -0.146517
v 0.261320 -0.060000 -0.122348
v 0.261320 0.060000 -0.122348
v 0.265622 -0.060000 -0.096874
v 0.265622 0.060000 -0.096874
v 0.267046 -0.060000 -0.070330
v 0.267046 0.060000 -0.070330
v 0.265538 -0.060000 -0.044094
v 0.265538 0.060000 -0.044094
v 0.260982 -0.060000 -0.019029
v 0.260982 0.060000 -0.019029
v 0.253328 -0.060000 0.004655
v 0.253328 0.060000 0.004655
v 0.242528 -0.060000 0.026745
v 0.242528 0.060000 0.026745
v 0.228534 -0.060000 0.047029
v 0.228534 0.060000 0.047029
v 0.211296 -0.060000 0.065295
v 0.211296 0.060000 0.065295
v 0.190767 -0.060000 0.081333
v 0.190767 0.060000 0.081333
v 0.166898 -0.060000 0.094930
v 0.166898 0.060000 0.094930
v 0.139640 -0.060000 0.105874
v 0.139640 0.060000 0.105874
v 0.108945 -0.060000 0.113953
v 0.108945 0.060000 0.113953
v 0.074763 -0.060000 0.118956
v 0.074763 0.060000 0.118956
v 0.037046 -0.060000 0.120670
v 0.037046 0.060000 0.120670
v -0.064954 -0.060000 0.120670
v -0.064954 0.060000 0.120670
v -0.064954 -0.060000 0.415670
v -0.064954 0.060000 0.415670
v -0.162954 -0.060000 0.415670
v -0.162954 0.060000 0.415670
v -0.162954 -0.060000 -0.266330
v -0.162954 0.060000 -0.266330
v 0.050046 -0.060000 -0.266330
v 0.050046 0.060000 -0.266330
v 0.046046 -0.060000 0.032670
v 0.046046 0.060000 0.032670
v 0.063743 -0.060000 0.031864
v 0.063743 0.060000 0.031864
v 0.080282 -0.060000 0.029467
v 0.080282 0.060000 0.029467
v 0.095593 -0.060000 0.025514
v 0.095593 0.060000 0.025514
v 0.109602 -0.060000 0.020041
v 0.109602 0.060000 0.020041
v 0.122236 -0.060000 0.013081
v 0.122236 0.060000 0.013081
v 0.133421 -0.060000 0.004671
v 0.133421 0.060000 0.004671
v 0.143086 -0.060000 -0.005157
v 0.143086 0.060000 -0.005157
v 0.151157 -0.060000 -0.016367
v 0.151157 0.060000 -0.016367
v 0.157562 -0.060000 -0.028923
v 0.157562 0.060000 -0.028923
v 0.162227 -0.060000 -0.042792
v 0.162227 0.060000 -0.042792
v 0.165079 -0.060000 -0.057939
v 0.165079 0.060000 -0.057939
v 0.166046 -0.060000 -0.074330
v 0.166046 0.060000 -0.074330
v 0.165464 -0.060000 -0.086879
v 0.165464 0.060000 -0.086879
v 0.163634 -0.060000 -0.099394
v 0.163634 0.060000 -0.099394
v 0.160437 -0.060000 -0.111673
v 0.160437 0.060000 -0.111673
v 0.155750 -0.060000 -0.123515
v 0.155750 0.060000 -0.123515
v 0.149452 -0.060000 -0.134717
v 0.149452 0.060000 -0.134717
v 0.141421 -0.060000 -0.145080
v 0.141421 0.060000 -0.145080
v 0.131537 -0.060000 -0.154400
v 0.131537 0.060000 -0.154400
v 0.119676 -0.060000 -0.162478
v 0.119676 0.060000 -0.162478
v 0.105718 -0.060000 -0.169111
v 0.105718 0.060000 -0.169111
v 0.089542 -0.060000 -0.174098
v 0.089542 0.060000 -0.174098
v 0.071025 -0.060000 -0.177238
v 0.071025 0.060000 -0.177238
v 0.050046 -0.060000 -0.178330
v 0.050046 0.060000 -0.178330
v -0.064954 -0.060000 -0.178330
v -0.064954 0.060000 -0.178330
v -0.064954 -0.060000 0.032670
v -0.064954 0.060000 0.032670
vt 0.472727 0.000000
vt 0.981818 0.000000
vt 0.490909 0.000000
vt 0.509091 0.000000
vt 0.000000 0.000000
vt 0.018182 0.000000
vt 0.036364 0.000000
vt 0.054545 0.000000
vt 0.072727 0.000000
vt 0.090909 0.000000
vt 0.109091 0.000000
vt 0.963636 0.000000
vt 0.127273 0.000000
vt 1.000000 0.000000
vt 0.945455 0.000000
vt 0.927273 0.000000
vt 0.909091 0.000000
vt 0.145455 0.000000
vt 0.890909 0.000000
vt 0.872727 0.000000
vt 0.854545 0.000000
vt 0.163636 0.000000
vt 0.836364 0.000000
vt 0.818182 0.000000
vt 0.800000 0.000000
vt 0.181818 0.000000
vt 0.781818 0.000000
vt 0.763636 0.000000
vt 0.200000 0.000000
vt 0.745455 0.000000
vt 0.727273 0.000000
vt 0.218182 0.000000
vt 0.709091 0.000000
vt 0.236364 0.000000
vt 0.690909 0.000000
vt 0.672727 0.000000
vt 0.254545 0.000000
vt 0.654545 0.000000
vt 0.636364 0.000000
vt 0.272727 0.000000
vt 0.618182 0.000000
vt 0.600000 0.000000
vt 0.581818 0.000000
vt 0.563636 0.000000
vt 0.290909 0.000000
vt 0.545455 0.000000
vt 0.527273 0.000000
vt 0.436364 0.000000
vt 0.309091 0.000000
vt 0.327273 0.000000
vt 0.345455 0.000000
vt 0.363636 0.000000
vt 0.381818 0.000000
vt 0.400000 0.000000
vt 0.418182 0.000000
vt 0.454545 0.000000
vt 0.981818 0.000000
vt 0.472727 0.000000
vt 0.490909 0.000000
vt 0.509091 0.000000
vt 0.000000 0.000000
vt 0.018182 0.000000
vt 0.036364 0.000000
vt 0.054545 0.000000
vt 0.072727 0.000000
vt 0.090909 0.000000
vt 0.109091 0.000000
vt 0.963636 0.000000
vt 0.127273 0.000000
vt 1.000000 0.000000
vt 0.945455 0.000000
vt 0.927273 0.000000
vt 0.909091 0.000000
vt 0.145455 0.000000
vt 0.890909 0.000000
vt 0.872727 0.000000
vt 0.854545 0.000000
vt 0.163636 0.000000
vt 0.836364 0.000000
vt 0.818182 0.000000
vt 0.800000 0.000000
vt 0.181818 0.000000
vt 0.781818 0.000000
vt 0.763636 0.000000
vt 0.200000 0.000000
vt 0.745455 0.000000
vt 0.727273 0.000000
vt 0.218182 0.000000
vt 0.709091 0.000000
vt 0.236364 0.000000
vt 0.690909 0.000000
vt 0.672727 0.000000
vt 0.254545 0.000000
vt 0.654545 0.000000
vt 0.636364 0.000000
vt 0.272727 0.000000
vt 0.618182 0.000000
vt 0.600000 0.000000
vt 0.581818 0.000000
vt 0.563636 0.000000
vt 0.290909 0.000000
vt 0.545455 0.000000
vt 0.527273 0.000000
vt 0.436364 0.000000
vt 0.309091 0.000000
vt 0.327273 0.000000
vt 0.345455 0.000000
vt 0.363636 0.000000
vt 0.381818 0.000000
vt 0.400000 0.000000
vt 0.418182 0.000000
vt 0.454545 0.000000
vt 0.034483 1.000000
vt 0.000000 0.000000
vt 0.000000 1.000000
vt 0.068966 1.000000
vt 0.034483 0.000000
vt 0.103448 1.000000
vt 0.068966 0.000000
vt 0.137931 1.000000
vt 0.103448 0.000000
vt 0.172414 1.000000
vt 0.137931 0.000000
vt 0.206897 1.000000
vt 0.172414 0.000000
vt 0.241379 1.000000
vt 0.206897 0.000000
vt 0.275862 1.000000
vt 0.241379 0.000000
vt 0.310345 1.000000
vt 0.275862 0.000000
vt 0.344828 1.000000
vt 0.310345 0.000000
vt 0.379310 1.000000
vt 0.344828 0.000000
vt 0.413793 1.000000
vt 0.379310 0.000000
vt 0.448276 1.000000
vt 0.413793 0.000000
vt 0.482759 1.000000
vt 0.448276 0.000000
vt 0.517241 1.000000
vt 0.482759 0.000000
vt 0.551724 1.000000
vt 0.517241 0.000000
vt 0.586207 1.000000
vt 0.551724 0.000000
vt 0.620690 1.000000
vt 0.586207 0.000000
vt 0.655172 1.000000
vt 0.620690 0.000000
vt 0.689655 1.000000
vt 0.655172 0.000000
vt 0.724138 1.000000
vt 0.689655 0.000000
vt 0.758621 1.000000
vt 0.724138 0.000000
vt 0.793103 1.000000
vt 0.758621 0.000000
vt 0.827586 1.000000
vt 0.793103 0.000000
vt 0.862069 1.000000
vt 0.827586 0.000000
vt 0.896552 1.000000
vt 0.862069 0.000000
vt 0.931035 1.000000
vt 0.896552 0.000000
vt 0.965517 1.000000
vt 0.931035 0.000000
vt 1.000000 1.000000
vt 0.965517 0.000000
vt 0.037037 1.000000
vt 0.000000 0.000000
vt 0.000000 1.000000
vt 0.074074 1.000000
vt 0.037037 0.000000
vt 0.111111 1.000000
vt 0.074074 0.000000
vt 0.148148 1.000000
vt 0.111111 0.000000
vt 0.185185 1.000000
vt 0.148148 0.000000
vt 0.222222 1.000000
vt 0.185185 0.000000
vt 0.259259 1.000000
vt 0.222222 0.000000
vt 0.296296 1.000000
vt 0.259259 0.000000
vt 0.333333 1.000000
vt 0.296296 0.000000
vt 0.370370 1.000000
vt 0.333333 0.000000
vt 0.407407 1.000000
vt 0.370370 0.000000
vt 0.444444 1.000000
vt 0.407407 0.000000
vt 0.481481 1.000000
vt 0.444444 0.000000
vt 0.518519 1.000000
vt 0.481481 0.000000
vt 0.555556 1.000000
vt 0.518519 0.000000
vt 0.592593 1.000000
vt 0.555556 0.000000
vt 0.629630 1.000000
vt 0.592593 0.000000
vt 0.666667 1.000000
vt 0.629630 0.000000
vt 0.703704 1.000000
vt 0.666667 0.000000
vt 0.740741 1.000000
vt 0.703704 0.000000
vt 0.777778 1.000000
vt 0.740741 0.000000
vt 0.814815 1.000000
vt 0.777778 0.000000
vt 0.851852 1.000000
vt 0.814815 0.000000
vt 0.888889 1.000000
vt 0.851852 0.000000
vt 0.925926 1.000000
vt 0.888889 0.000000
vt 0.962963 1.000000
vt 0.925926 0.000000
vt 1.000000 1.000000
vt 0.962963 0.000000
vt 1.000000 0.000000
vt 1.000000 0.000000
vn 0.0000 1.0000 0.0000
vn 0.0000 -1.0000 0.0000
vn 0.2200 0.0000 -0.9755
vn 0.1053 0.0000 -0.9944
vn 0.3426 0.0000 -0.9395
vn 0.4688 0.0000 -0.8833
vn 0.5921 0.0000 -0.8058
vn 0.7056 0.0000 -0.7086
vn 0.8029 0.0000 -0.5960
vn 0.8804 0.0000 -0.4742
vn 0.9369 0.0000 -0.3494
vn 0.9739 0.0000 -0.2269
vn 0.9939 0.0000 -0.1102
vn 1.0000 0.0000 0.0019
vn 0.9930 0.0000 0.1183
vn 0.9698 0.0000 0.2437
vn 0.9273 0.0000 0.3743
vn 0.8631 0.0000 0.5049
vn 0.7775 0.0000 0.6289
vn 0.6734 0.0000 0.7393
vn 0.5567 0.0000 0.8307
vn 0.4348 0.0000 0.9005
vn 0.3142 0.0000 0.9493
vn 0.2000 0.0000 0.9798
vn 0.0952 0.0000 0.9955
vn 0.0227 0.0000 0.9997
vn 0.7071 0.0000 0.7071
vn -0.7071 0.0000 0.7071
vn -0.7071 0.0000 -0.7071
vn 0.0252 0.0000 -0.9997
vn -0.0946 0.0000 -0.9955
vn -0.0228 0.0000 -0.9997
vn -0.1970 0.0000 -0.9804
vn -0.3075 0.0000 -0.9515
vn -0.4241 0.0000 -0.9056
vn -0.5431 0.0000 -0.8397
vn -0.6588 0.0000 -0.7523
vn -0.7645 0.0000 -0.6446
vn -0.8536 0.0000 -0.5208
vn -0.9218 0.0000 -0.3876
vn -0.9676 0.0000 -0.2525
vn -0.9925 0.0000 -0.1222
vn -1.0000 0.0000 -0.0063
vn -0.9954 0.0000 0.0956
vn -0.9801 0.0000 0.1986
vn -0.9505 0.0000 0.3106
vn -0.9028 0.0000 0.4300
vn -0.8333 0.0000 0.5528
vn -0.7404 0.0000 0.6721
vn -0.6264 0.0000 0.7795
vn -0.4975 0.0000 0.8674
vn -0.3629 0.0000 0.9318
vn -0.2314 0.0000 0.9728
vn -0.1097 0.0000 0.9940
vn -0.0260 0.0000 0.9996
vn 0.7071 0.0000 -0.7071
usemtl Red
s off
f 27/1/1 55/2/1 28/3/1
f 55/2/1 29/4/1 28/3/1
f 55/2/1 1/5/1 29/4/1
f 55/2/1 2/6/1 1/5/1
f 55/2/1 3/7/1 2/6/1
f 55/2/1 4/8/1 3/7/1
f 55/2/1 5/9/1 4/8/1
f 55/2/1 6/10/1 5/9/1
f 55/2/1 7/11/1 6/10/1
f 55/2/1 54/12/1 7/11/1
f 54/12/1 8/13/1 7/11/1
f 27/1/1 56/14/1 55/2/1
f 53/15/1 8/13/1 54/12/1
f 52/16/1 8/13/1 53/15/1
f 51/17/1 8/13/1 52/16/1
f 51/17/1 9/18/1 8/13/1
f 50/19/1 9/18/1 51/17/1
f 49/20/1 9/18/1 50/19/1
f 48/21/1 9/18/1 49/20/1
f 48/21/1 10/22/1 9/18/1
f 47/23/1 10/22/1 48/21/1
f 46/24/1 10/22/1 47/23/1
f 45/25/1 10/22/1 46/24/1
f 45/25/1 11/26/1 10/22/1
f 44/27/1 11/26/1 45/25/1
f 43/28/1 11/26/1 44/27/1
f 43/28/1 12/29/1 11/26/1
f 42/30/1 12/29/1 43/28/1
f 41/31/1 12/29/1 42/30/1
f 41/31/1 13/32/1 12/29/1
f 40/33/1 13/32/1 41/31/1
f 40/33/1 14/34/1 13/32/1
f 39/35/1 14/34/1 40/33/1
f 38/36/1 14/34/1 39/35/1
f 38/36/1 15/37/1 14/34/1
f 37/38/1 15/37/1 38/36/1
f 36/39/1 15/37/1 37/38/1
f 36/39/1 16/40/1 15/37/1
f 35/41/1 16/40/1 36/39/1
f 34/42/1 16/40/1 35/41/1
f 33/43/1 16/40/1 34/42/1
f 32/44/1 16/40/1 33/43/1
f 32/44/1 17/45/1 16/40/1
f 31/46/1 17/45/1 32/44/1
f 30/47/1 17/45/1 31/46/1
f 27/1/1 25/48/1 56/14/1
f 25/48/1 30/47/1 56/14/1
f 25/48/1 17/45/1 30/47/1
f 25/48/1 18/49/1 17/45/1
f 25/48/1 19/50/1 18/49/1
f 25/48/1 20/51/1 19/50/1
f 25/48/1 21/52/1 20/51/1
f 25/48/1 22/53/1 21/52/1
f 25/48/1 23/54/1 22/53/1
f 25/48/1 24/55/1 23/54/1
f 27/1/1 26/56/1 25/48/1
f 111/57/2 83/58/2 84/59/2
f 85/60/2 111/57/2 84/59/2
f 57/61/2 111/57/2 85/60/2
f 58/62/2 111/57/2 57/61/2
f 59/63/2 111/57/2 58/62/2
f 60/64/2 111/57/2 59/63/2
f 61/65/2 111/57/2 60/64/2
f 62/66/2 111/57/2 61/65/2
f 63/67/2 111/57/2 62/66/2
f 110/68/2 111/57/2 63/67/2
f 64/69/2 110/68/2 63/67/2
f 112/70/2 83/58/2 111/57/2
f 64/69/2 109/71/2 110/68/2
f 64/69/2 108/72/2 109/71/2
f 64/69/2 107/73/2 108/72/2
f 65/74/2 107/73/2 64/69/2
f 65/74/2 106/75/2 107/73/2
f 65/74/2 105/76/2 106/75/2
f 65/74/2 104/77/2 105/76/2
f 66/78/2 104/77/2 65/74/2
f 66/78/2 103/79/2 104/77/2
f 66/78/2 102/80/2 103/79/2
f 66/78/2 101/81/2 102/80/2
f 67/82/2 101/81/2 66/78/2
f 67/82/2 100/83/2 101/81/2
f 67/82/2 99/84/2 100/83/2
f 68/85/2 99/84/2 67/82/2
f 68/85/2 98/86/2 99/84/2
f 68/85/2 97/87/2 98/86/2
f 69/88/2 97/87/2 68/85/2
f 69/88/2 96/89/2 97/87/2
f 70/90/2 96/89/2 69/88/2
f 70/90/2 95/91/2 96/89/2
f 70/90/2 94/92/2 95/91/2
f 71/93/2 94/92/2 70/90/2
f 71/93/2 93/94/2 94/92/2
f 71/93/2 92/95/2 93/94/2
f 72/96/2 92/95/2 71/93/2
f 72/96/2 91/97/2 92/95/2
f 72/96/2 90/98/2 91/97/2
f 72/96/2 89/99/2 90/98/2
f 72/96/2 88/100/2 89/99/2
f 73/101/2 88/100/2 72/96/2
f 73/101/2 87/102/2 88/100/2
f 73/101/2 86/103/2 87/102/2
f 81/104/2 83/58/2 112/70/2
f 86/103/2 81/104/2 112/70/2
f 73/101/2 81/104/2 86/103/2
f 74/105/2 81/104/2 73/101/2
f 75/106/2 81/104/2 74/105/2
f 76/107/2 81/104/2 75/106/2
f 77/108/2 81/104/2 76/107/2
f 78/109/2 81/104/2 77/108/2
f 79/110/2 81/104/2 78/109/2
f 80/111/2 81/104/2 79/110/2
f 82/112/2 83/58/2 81/104/2
s 1
f 116/113/3 113/114/4 114/115/4
f 118/116/5 115/117/3 116/113/3
f 120/118/6 117/119/5 118/116/5
f 122/120/7 119/121/6 120/118/6
f 124/122/8 121/123/7 122/120/7
f 126/124/9 123/125/8 124/122/8
f 128/126/10 125/127/9 126/124/9
f 130/128/11 127/129/10 128/126/10
f 132/130/12 129/131/11 130/128/11
f 134/132/13 131/133/12 132/130/12
f 136/134/14 133/135/13 134/132/13
f 138/136/15 135/137/14 136/134/14
f 140/138/16 137/139/15 138/136/15
f 142/140/17 139/141/16 140/138/16
f 144/142/18 141/143/17 142/140/17
f 146/144/19 143/145/18 144/142/18
f 148/146/20 145/147/19 146/144/19
f 150/148/21 147/149/20 148/146/20
f 152/150/22 149/151/21 150/148/21
f 154/152/23 151/153/22 152/150/22
f 156/154/24 153/155/23 154/152/23
f 158/156/25 155/157/24 156/154/24
f 160/158/26 157/159/25 158/156/25
f 162/160/27 159/161/26 160/158/26
f 164/162/27 161/163/27 162/160/27
f 166/164/28 163/165/27 164/162/27
f 168/166/29 165/167/28 166/164/28
f 170/168/30 167/169/29 168/166/29
f 114/170/4 169/171/30 170/168/30
f 174/172/31 171/173/32 172/174/32
f 176/175/33 173/176/31 174/172/31
f 178/177/34 175/178/33 176/175/33
f 180/179/35 177/180/34 178/177/34
f 182/181/36 179/182/35 180/179/35
f 184/183/37 181/184/36 182/181/36
f 186/185/38 183/186/37 184/183/37
f 188/187/39 185/188/38 186/185/38
f 190/189/40 187/190/39 188/187/39
f 192/191/41 189/192/40 190/189/40
f 194/193/42 191/194/41 192/191/41
f 196/195/43 193/196/42 194/193/42
f 198/197/44 195/198/43 196/195/43
f 200/199/45 197/200/44 198/197/44
f 202/201/46 199/202/45 200/199/45
f 204/203/47 201/204/46 202/201/46
f 206/205/48 203/206/47 204/203/47
f 208/207/49 205/208/48 206/205/48
f 210/209/50 207/210/49 208/207/49
f 212/211/51 209/212/50 210/209/50
f 214/213/52 211/214/51 212/211/51
f 216/215/53 213/216/52 214/213/52
f 218/217/54 215/218/53 216/215/53
f 220/219/55 217/220/54 218/217/54
f 222/221/27 219/222/55 220/219/55
f 224/223/56 221/224/27 222/221/27
f 172/225/32 223/226/56 224/223/56
f 116/113/3 115/117/3 113/114/4
f 118/116/5 117/119/5 115/117/3
f 120/118/6 119/121/6 117/119/5
f 122/120/7 121/123/7 119/121/6
f 124/122/8 123/125/8 121/123/7
f 126/124/9 125/127/9 123/125/8
f 128/126/10 127/129/10 125/127/9
f 130/128/11 129/131/11 127/129/10
f 132/130/12 131/133/12 129/131/11
f 134/132/13 133/135/13 131/133/12
f 136/134/14 135/137/14 133/135/13
f 138/136/15 137/139/15 135/137/14
f 140/138/16 139/141/16 137/139/15
f 142/140/17 141/143/17 139/141/16
f 144/142/18 143/145/18 141/143/17
f 146/144/19 145/147/19 143/145/18
f 148/146/20 147/149/20 145/147/19
f 150/148/21 149/151/21 147/149/20
f 152/150/22 151/153/22 149/151/21
f 154/152/23 153/155/23 151/153/22
f 156/154/24 155/157/24 153/155/23
f 158/156/25 157/159/25 155/157/24
f 160/158/26 159/161/26 157/159/25
f 162/160/27 161/163/27 159/161/26
f 164/162/27 163/165/27 161/163/27
f 166/164/28 165/167/28 163/165/27
f 168/166/29 167/169/29 165/167/28
f 170/168/30 169/171/30 167/169/29
f 114/170/4 113/227/4 169/171/30
f 174/172/31 173/176/31 171/173/32
f 176/175/33 175/178/33 173/176/31
f 178/177/34 177/180/34 175/178/33
f 180/179/35 179/182/35 177/180/34
f 182/181/36 181/184/36 179/182/35
f 184/183/37 183/186/37 181/184/36
f 186/185/38 185/188/38 183/186/37
f 188/187/39 187/190/39 185/188/38
f 190/189/40 189/192/40 187/190/39
f 192/191/41 191/194/41 189/192/40
f 194/193/42 193/196/42 191/194/41
f 196/195/43 195/198/43 193/196/42
f 198/197/44 197/200/44 195/198/43
f 200/199/45 199/202/45 197/200/44
f 202/201/46 201/204/46 199/202/45
f 204/203/47 203/206/47 201/204/46
f 206/205/48 205/208/48 203/206/47
f 208/207/49 207/210/49 205/208/48
f 210/209/50 209/212/50 207/210/49
f 212/211/51 211/214/51 209/212/50
f 214/213/52 213/216/52 211/214/51
f 216/215/53 215/218/53 213/216/52
f 218/217/54 217/220/54 215/218/53
f 220/219/55 219/222/55 217/220/54
f 222/221/27 221/224/27 219/222/55
f 224/223/56 223/226/56 221/224/27
f 172/225/32 171/228/32 223/226/56
