# Blender v3.4.1 OBJ File: 'text.blend'
# www.blender.org
mtllib w.mtl
o Text.014_Text.030
v 0.241648 -0.208220 0.036182
v 0.244850 -0.188730 -0.031471
v 0.112996 -0.229703 0.027514
v 0.194715 0.000414 0.036989
v 0.197403 0.013601 -0.035720
v 0.052982 0.018758 0.039684
v 0.106397 -0.206510 -0.037864
v 0.133867 0.011242 -0.037977
v 0.044785 0.021548 -0.032747
v 0.357529 0.271150 0.032874
v 0.263654 0.266412 0.038570
v 0.271255 0.291941 -0.033138
v 0.069058 0.238940 0.038213
v 0.359138 0.268529 -0.036295
v 0.062323 0.269324 -0.033324
v -0.076642 -0.211436 0.037578
v -0.090118 -0.230682 -0.036967
v -0.206691 -0.204626 0.036275
v -0.028627 0.288494 0.037229
v -0.141888 -0.019808 0.028979
v -0.273061 0.020043 -0.025970
v -0.207429 -0.207120 -0.040672
v -0.009638 0.004260 -0.001274
v -0.132437 -0.043770 -0.033451
v -0.251651 0.291887 0.041647
v -0.305400 0.146145 0.025576
v -0.232468 0.257510 -0.036254
v -0.041269 0.260884 -0.038692
v -0.331656 0.269352 -0.032851
vn -0.0567 -0.0625 0.9964
vn 0.0191 0.0004 0.9998
vn -0.9718 -0.2354 0.0146
vn -0.0043 -0.0048 1.0000
vn 0.9698 -0.2426 -0.0240
vn -0.9680 0.2508 0.0097
vn 0.2563 0.9661 -0.0306
vn -0.0640 -0.0478 -0.9968
vn 0.9635 0.2667 0.0226
vn 0.4262 0.8464 0.3194
vn -0.0078 0.0422 0.9991
vn -0.1978 -0.9797 0.0337
vn 0.2273 0.0697 -0.9713
vn 0.0370 0.0272 -0.9989
vn -0.0064 0.0072 1.0000
vn -0.2115 -0.0297 0.9769
vn -0.6970 0.1805 0.6939
vn -0.9024 0.3386 -0.2666
vn 0.0675 0.0131 -0.9976
vn -0.8440 -0.2120 -0.4927
vn 0.0966 0.9192 -0.3818
vn 0.1762 -0.9481 -0.2648
vn 0.0470 -0.0064 -0.9989
vn 0.9407 0.3277 0.0870
vn -0.9601 -0.2616 0.0986
vn -0.0578 0.0068 -0.9983
vn 0.0610 -0.0078 0.9981
vn -0.0274 0.9426 0.3327
vn 0.6897 -0.0455 0.7227
vn 0.1290 0.9909 0.0384
vn 0.9716 -0.2346 0.0315
vn 0.0216 -0.0159 -0.9996
vn -0.0312 0.0176 -0.9994
vn -0.9665 0.2565 -0.0111
vn 0.2666 -0.9615 -0.0672
vn 0.0491 0.0316 -0.9983
vn -0.0531 -0.9645 0.2586
vn 0.6403 -0.0610 0.7657
vn -0.1007 0.0104 0.9949
vn 0.9463 -0.3103 -0.0909
vn -0.9602 -0.2786 0.0182
vn -0.5169 -0.1487 0.8430
vn 0.1133 -0.0005 0.9936
vn -0.9616 -0.2689 0.0546
vn 0.0116 -0.0207 -0.9997
vn 0.3444 -0.9353 0.0818
vn -0.9563 0.2871 0.0548
vn -0.0595 0.9413 -0.3324
vn -0.9721 -0.2298 -0.0477
vn -0.0334 0.0077 -0.9994
vn 0.1352 -0.9294 -0.3434
vn 0.0360 -0.0126 -0.9993
vn 0.9487 0.3152 0.0227
vn -0.0428 0.9833 0.1768
usemtl Red
s off
f 6//1 3//1 1//1
f 6//2 1//2 4//2
f 7//3 3//3 6//3
f 11//4 4//4 1//4
f 1//5 2//5 14//5
f 5//6 4//6 11//6
f 12//7 10//7 14//7
f 28//8 8//8 9//8
f 13//9 8//9 15//9
f 15//10 19//10 13//10
f 20//11 18//11 16//11
f 17//12 18//12 22//12
f 24//13 23//13 17//13
f 22//14 24//14 17//14
f 13//15 19//15 6//15
f 26//16 18//16 25//16
f 29//17 26//17 25//17
f 24//18 20//18 19//18
f 27//19 24//19 22//19
f 22//20 21//20 29//20
f 29//21 25//21 27//21
f 3//22 2//22 1//22
f 8//23 2//23 7//23
f 20//24 27//24 25//24
f 9//25 7//25 6//25
f 8//26 7//26 9//26
f 11//27 1//27 10//27
f 12//28 11//28 10//28
f 13//29 6//29 8//29
f 4//30 8//30 6//30
f 10//31 1//31 14//31
f 14//32 2//32 5//32
f 12//33 14//33 5//33
f 12//34 5//34 11//34
f 9//35 6//35 23//35
f 15//36 8//36 28//36
f 17//37 16//37 18//37
f 19//38 16//38 23//38
f 19//39 20//39 16//39
f 23//40 16//40 17//40
f 21//41 22//41 18//41
f 19//42 23//42 6//42
f 25//43 18//43 20//43
f 26//44 21//44 18//44
f 28//45 9//45 24//45
f 9//46 23//46 24//46
f 28//47 24//47 19//47
f 15//48 28//48 19//48
f 26//49 29//49 21//49
f 27//50 22//50 29//50
f 3//51 7//51 2//51
f 8//52 5//52 2//52
f 20//53 24//53 27//53
f 4//54 5//54 8//54
