# Blender v2.91.2 OBJ File: ''
# www.blender.org
mtllib c.mtl
o Text_Text.004
v 0.126494 -0.576515 0.690210
v 0.126494 -0.655011 0.514085
v 0.126459 -0.700691 0.084360
v 0.126531 -0.370624 0.687378
v 0.126481 -0.484398 0.434245
v 0.126479 -0.520871 0.204080
v 0.126437 -0.559842 -0.271545
v 0.126444 -0.477032 -0.025890
v 0.126517 -0.373848 -0.190775
v 0.126427 -0.317479 -0.473505
v 0.126507 -0.136239 -0.334002
v 0.126491 -0.012108 -0.549295
v -0.126482 -0.173214 -0.328338
v -0.126532 -0.116508 -0.540207
v 0.126505 0.394999 0.673048
v 0.126510 0.520185 0.357737
v 0.126527 0.519061 0.054825
v 0.126493 0.600347 0.675952
v 0.126501 0.700585 0.365017
v 0.126495 0.707363 0.090341
v 0.126475 0.183217 -0.324049
v 0.126390 0.334480 -0.474478
v 0.126508 0.422188 -0.142300
v -0.126518 0.395964 -0.179075
v 0.126496 0.596664 -0.228301
v -0.126510 -0.587676 0.689319
v -0.126500 -0.698209 0.235982
v -0.126511 -0.371207 0.688008
v -0.126500 -0.506386 0.351797
v -0.126512 -0.510305 0.082557
v -0.126501 -0.659658 -0.074684
v -0.126511 -0.381025 -0.185217
v -0.126518 -0.502763 -0.339404
v -0.126503 0.191303 -0.521147
v -0.126504 0.603158 0.675158
v -0.126500 0.389960 0.675974
v -0.126503 0.525131 0.332151
v -0.126490 0.716237 0.221519
v -0.126538 0.144920 -0.333960
v -0.126510 0.522449 0.078116
v -0.126539 0.466950 -0.371115
v -0.126491 0.648005 -0.131667
vn -0.0041 0.0138 0.9999
vn 1.0000 -0.0000 -0.0002
vn 1.0000 -0.0002 -0.0004
vn 1.0000 -0.0005 0.0001
vn 0.0644 -0.2404 -0.9685
vn 1.0000 0.0000 -0.0000
vn 1.0000 0.0001 -0.0005
vn -0.0529 -0.6045 0.7948
vn 0.0409 0.9270 -0.3727
vn -1.0000 -0.0000 -0.0000
vn -0.1314 -0.4573 -0.8796
vn -1.0000 -0.0000 0.0001
vn -1.0000 0.0001 0.0000
vn 0.0286 -0.8970 0.4411
vn 0.0461 -0.5245 0.8502
vn 0.0662 0.9425 -0.3274
vn -0.0683 0.7958 -0.6017
vn -0.0348 0.9871 -0.1564
vn 0.0388 -0.9127 0.4068
vn 0.0615 -0.6390 -0.7668
vn 0.0020 0.5672 0.8236
vn 0.0605 0.6832 -0.7277
vn 1.0000 0.0001 -0.0000
vn -1.0000 -0.0002 -0.0002
vn 1.0000 -0.0000 -0.0001
vn -1.0000 -0.0001 -0.0000
vn 0.0269 -0.0311 0.9992
vn 1.0000 -0.0002 0.0001
vn 1.0000 -0.0003 -0.0004
vn 1.0000 -0.0003 -0.0002
vn -0.0562 0.5154 0.8551
vn 0.0118 -0.0141 0.9998
vn 1.0000 0.0001 -0.0001
vn 1.0000 0.0003 -0.0002
vn -1.0000 0.0001 0.0001
vn -0.0941 -0.9672 0.2358
vn 0.0678 0.8985 0.4338
vn -1.0000 0.0001 0.0003
vn 0.0166 -0.9299 -0.3673
vn -0.0769 0.9674 0.2412
vn -0.0165 -0.9998 0.0068
vn -0.1079 0.4753 -0.8732
vn 0.0608 0.2106 -0.9757
vn 0.0535 -0.9930 0.1055
vn 0.0025 0.0061 1.0000
vn -0.0031 0.9121 -0.4100
vn 0.0487 0.9987 -0.0145
vn 0.0803 -0.9268 -0.3668
vn -0.0572 -0.8588 -0.5090
vn -0.0124 0.8476 0.5304
vn 0.0096 0.9517 0.3068
vn 0.0478 0.9986 0.0246
vn -0.0031 0.0038 1.0000
vn 0.0289 -0.8971 0.4409
vn -0.0418 0.0176 0.9990
vn -0.0612 0.0617 -0.9962
vn -0.0833 -0.9889 -0.1227
vn -0.0638 0.9798 -0.1893
vn -0.0489 0.9811 0.1870
usemtl Red
s off
f 4//1 26//1 1//1
f 2//2 5//2 4//2
f 10//3 11//3 9//3
f 7//4 9//4 8//4
f 12//5 10//5 14//5
f 7//6 8//6 3//6
f 21//7 22//7 25//7
f 24//8 21//8 23//8
f 29//9 28//9 5//9
f 29//10 26//10 28//10
f 14//11 10//11 33//11
f 32//12 33//12 31//12
f 35//10 37//10 36//10
f 38//13 40//13 37//13
f 40//14 24//14 17//14
f 21//15 24//15 39//15
f 25//16 42//16 20//16
f 42//17 25//17 41//17
f 29//18 5//18 6//18
f 26//19 2//19 1//19
f 10//20 7//20 33//20
f 13//21 32//21 9//21
f 41//22 25//22 22//22
f 12//23 21//23 11//23
f 39//24 34//24 13//24
f 6//25 5//25 2//25 3//25
f 30//26 31//26 27//26
f 42//13 40//13 38//13
f 21//27 13//27 11//27
f 18//23 15//23 16//23 19//23
f 2//28 4//28 1//28
f 7//29 10//29 9//29
f 11//30 10//30 12//30
f 9//31 11//31 13//31
f 18//32 36//32 15//32
f 19//23 16//23 17//23 20//23
f 25//33 20//33 17//33 23//33
f 12//34 22//34 21//34
f 23//2 21//2 25//2
f 33//35 32//35 13//35 14//35
f 2//36 26//36 27//36
f 29//10 30//10 27//10
f 29//10 27//10 26//10
f 8//37 32//37 30//37
f 34//38 14//38 13//38
f 37//39 16//39 15//39 36//39
f 30//26 32//26 31//26
f 39//10 24//10 41//10 34//10
f 38//40 35//40 19//40
f 35//13 38//13 37//13
f 17//41 16//41 37//41 40//41
f 34//42 41//42 22//42
f 34//43 22//43 12//43
f 42//13 24//13 40//13
f 42//35 41//35 24//35
f 2//44 27//44 3//44
f 4//45 28//45 26//45
f 5//46 28//46 4//46
f 30//47 29//47 6//47
f 3//48 31//48 7//48
f 31//49 33//49 7//49
f 9//50 32//50 8//50
f 19//51 35//51 18//51
f 20//52 38//52 19//52
f 18//53 35//53 36//53
f 17//54 24//54 23//54
f 13//55 21//55 39//55
f 14//56 34//56 12//56
f 3//2 8//2 6//2
f 27//57 31//57 3//57
f 20//58 42//58 38//58
f 8//59 30//59 6//59
