# Blender v3.4.1 OBJ File: 'text.blend'
# www.blender.org
mtllib o2.mtl
o Text.003_Text.019
v 0.244573 0.000315 0.001048
v 0.196104 -0.154682 0.001715
v 0.145353 0.206381 0.034022
v 0.109895 -0.243310 -0.000572
v 0.112809 0.109897 -0.001297
v 0.117239 -0.143958 0.036545
v -0.131102 -0.250995 0.003680
v -0.155100 -0.207910 0.035499
v -0.088999 -0.173893 0.000091
v 0.142737 -0.193059 -0.035513
v 0.121697 -0.111140 -0.020236
v 0.069435 0.185710 0.036328
v -0.157572 0.191502 0.035288
v -0.131958 0.250669 0.000898
v 0.168448 0.174479 -0.031349
v 0.094409 0.228424 -0.032997
v -0.106431 0.190960 -0.033459
v -0.152168 -0.061260 -0.001913
v -0.234375 -0.000129 0.043622
v -0.231537 -0.159847 -0.018551
v -0.227738 -0.028875 -0.038220
v -0.151264 0.062485 0.009467
v -0.233443 0.152399 -0.008424
vn 0.3878 -0.1173 0.9142
vn 0.3379 -0.3512 0.8732
vn -0.8216 0.0700 0.5658
vn -0.9948 -0.0317 -0.0965
vn -0.2083 0.8538 0.4771
vn 0.3627 -0.0148 -0.9318
vn -0.5207 0.0521 -0.8521
vn -0.1834 -0.2805 -0.9422
vn -0.6656 -0.2810 0.6914
vn 0.4333 -0.0857 0.8972
vn 0.0038 -0.5725 -0.8199
vn -0.0704 -0.3089 -0.9485
vn -0.5805 0.2661 0.7695
vn -0.0855 0.4692 -0.8789
vn -0.2350 0.1505 -0.9603
vn -0.6101 0.5787 0.5412
vn -0.9820 0.0001 -0.1888
vn 0.2853 -0.0160 0.9583
vn 0.0088 0.4997 0.8662
vn -0.2057 0.8687 0.4505
vn 0.6868 -0.6602 -0.3040
vn 0.6559 -0.2082 -0.7256
vn -0.1383 0.1471 -0.9794
vn 0.1311 -0.3795 0.9159
vn 0.0277 -0.3516 0.9357
vn -0.3196 -0.5616 0.7632
vn 0.9021 0.4158 0.1158
vn -0.4720 0.0430 -0.8806
vn 0.5817 0.7929 -0.1814
vn 0.5802 0.1904 0.7919
vn 0.0490 -0.2509 -0.9668
vn 0.1281 0.9669 0.2207
vn 0.0907 0.9943 0.0554
vn -0.6679 -0.6456 0.3704
vn 0.1136 -0.1508 -0.9820
vn 0.5087 0.2708 -0.8173
vn 0.4709 -0.1509 0.8692
vn 0.7995 -0.0801 0.5954
vn 0.4587 0.0780 -0.8851
vn 0.7866 -0.4244 -0.4485
vn -0.2889 0.3817 -0.8780
vn -0.9995 -0.0050 -0.0327
vn -0.0604 0.3271 0.9431
vn 0.1245 -0.5437 0.8300
vn -0.0255 -0.9996 -0.0110
vn 0.3687 0.2228 0.9024
usemtl Red
s off
f 6//1 2//1 1//1
f 6//2 4//2 2//2
f 5//3 6//3 3//3
f 11//4 6//4 5//4
f 9//5 6//5 11//5
f 1//6 10//6 15//6
f 15//7 11//7 5//7
f 16//8 15//8 5//8
f 19//9 20//9 8//9
f 22//10 19//10 18//10
f 10//11 4//11 7//11
f 10//12 7//12 20//12
f 23//13 19//13 13//13
f 14//14 16//14 17//14
f 23//15 17//15 21//15
f 23//16 13//16 14//16
f 23//17 21//17 20//17
f 1//18 3//18 6//18
f 12//19 14//19 13//19
f 9//20 8//20 6//20
f 2//21 4//21 10//21
f 10//22 1//22 2//22
f 9//23 11//23 10//23
f 12//24 5//24 3//24
f 6//25 7//25 4//25
f 12//26 17//26 5//26
f 3//27 1//27 15//27
f 15//28 10//28 11//28
f 15//29 16//29 3//29
f 8//30 18//30 19//30
f 16//31 5//31 17//31
f 16//32 14//32 3//32
f 9//33 10//33 20//33
f 8//34 20//34 7//34
f 21//35 9//35 20//35
f 18//36 9//36 21//36
f 13//37 19//37 22//37
f 17//38 13//38 22//38
f 21//39 22//39 18//39
f 17//40 22//40 21//40
f 23//41 14//41 17//41
f 23//42 20//42 19//42
f 12//43 3//43 14//43
f 6//44 8//44 7//44
f 12//45 13//45 17//45
f 8//46 9//46 18//46
