# Blender v3.4.1 OBJ File: ''
# www.blender.org
mtllib a1.mtl
o Text.013_Text.014
v 4.258619 1.391709 0.000000
v 3.584000 0.000000 0.000000
v 4.236000 1.072000 0.000000
v 4.918000 0.000000 0.000000
v 4.218338 1.391635 0.237454
v 3.584000 0.000000 0.237454
v 4.236000 1.072000 0.237454
v 4.918000 0.000000 0.237454
v 4.482627 0.519334 0.237454
v 4.718000 0.000000 0.237454
v 4.718000 0.000000 0.000000
v 4.536000 0.402000 0.000000
v 4.006732 0.519338 0.000000
v 4.456000 0.578000 0.000000
v 4.032000 0.578000 0.237454
v 3.956000 0.402000 0.237454
v 3.784000 0.000000 0.237454
v 3.784000 0.000000 0.000000
vt 0.200000 0.000000
vt 0.035783 0.000000
vt 0.800000 0.000000
vt 0.700000 0.000000
vt 0.200000 0.000000
vt 0.800000 0.000000
vt 0.064973 0.000000
vt 0.700000 0.000000
vt 0.766703 0.000000
vt 0.600000 0.000000
vt 0.600000 0.000000
vt 0.500000 0.000000
vt 0.800093 0.000000
vt 0.900000 0.000000
vt 0.400000 0.000000
vt 1.000000 0.000000
vt 0.300000 0.000000
vt 0.300000 0.000000
vn 0.0000 0.0000 -1.0000
vn 0.0000 -0.0000 1.0000
vn 0.8833 0.4441 0.1500
vn 0.0000 -1.0000 0.0000
vn -0.9108 -0.4128 -0.0007
vn 0.1994 -0.8948 -0.3996
vn -0.9132 -0.4075 0.0017
vn 0.1258 0.9663 0.2246
vn 0.9243 -0.3817 0.0000
vn 0.9194 -0.3934 0.0000
vn -0.9099 0.4148 0.0000
vn 0.9037 0.4282 0.0000
vn -0.9110 -0.4124 0.0000
vn -0.1986 -0.8957 0.3979
vn -0.9135 -0.4068 0.0000
vn -0.1261 0.9661 -0.2252
vn 0.9237 -0.3832 -0.0036
vn 0.9190 -0.3942 0.0016
vn -0.8896 0.4312 -0.1508
usemtl Red
s off
f 2/1/1 1/2/1 3/3/1
f 3/3/1 1/2/1 4/4/1
f 6/5/2 7/6/2 5/7/2
f 7/6/2 8/8/2 5/7/2
f 9/9/2 8/8/2 7/6/2
f 10/10/2 8/8/2 9/9/2
f 11/11/1 12/12/1 4/4/1
f 13/13/1 14/14/1 12/12/1
f 12/12/1 14/14/1 4/4/1
f 14/14/1 3/3/1 4/4/1
f 8/8/3 1/2/3 5/7/3
f 2/1/1 3/3/1 13/13/1
f 6/5/2 16/15/2 15/16/2
f 6/5/2 15/16/2 7/6/2
f 16/15/2 9/9/2 15/16/2
f 6/5/2 17/17/2 16/15/2
f 2/1/1 13/13/1 18/18/1
f 11/11/4 8/8/4 10/10/4
f 12/12/5 10/10/5 9/9/5
f 13/13/6 9/9/6 16/15/6
f 7/6/7 14/14/7 9/9/7
f 14/14/8 15/16/8 9/9/8
f 15/16/9 3/3/9 7/6/9
f 18/18/10 16/15/10 17/17/10
f 2/1/4 17/17/4 6/5/4
f 5/7/11 2/1/11 6/5/11
f 8/8/12 4/4/12 1/2/12
f 11/11/4 4/4/4 8/8/4
f 12/12/13 11/11/13 10/10/13
f 13/13/14 12/12/14 9/9/14
f 7/6/15 3/3/15 14/14/15
f 14/14/16 13/13/16 15/16/16
f 15/16/17 13/13/17 3/3/17
f 18/18/18 13/13/18 16/15/18
f 2/1/4 18/18/4 17/17/4
f 5/7/19 1/2/19 2/1/19
