# Blender v3.4.1 OBJ File: ''
# www.blender.org
mtllib e.mtl
o Text.006_Text.007
v 0.113565 0.704464 0.336000
v 0.113565 0.528464 -0.242000
v 0.113565 0.704464 -0.438000
v 0.113565 0.528464 0.336000
v -0.123889 0.645797 0.336000
v -0.123889 0.528464 -0.242000
v -0.123889 0.704464 -0.438000
v -0.123889 -0.659536 -0.438000
v -0.123889 0.116464 -0.242000
v -0.123889 -0.059536 -0.242000
v -0.123889 -0.483536 -0.242000
v -0.123889 -0.483536 0.354001
v -0.123889 -0.659536 0.354001
v 0.113565 -0.659536 -0.438000
v 0.113565 0.116464 -0.242000
v 0.113565 -0.059536 -0.242000
v 0.113565 -0.483536 -0.242000
v 0.113565 -0.483536 0.354001
v 0.113565 -0.659536 0.354001
v 0.113565 0.116464 0.316001
v 0.113565 -0.059536 0.316001
v -0.123889 -0.059536 0.316001
v -0.123889 0.116464 0.316001
vt 0.909091 0.000000
vt 0.000000 0.000000
vt 1.000000 0.000000
vt 0.090909 0.000000
vt 0.333333 0.000000
vt 0.090909 0.000000
vt 0.909091 0.000000
vt 0.181818 0.000000
vt 0.818182 0.000000
vt 0.545455 0.000000
vt 0.454545 0.000000
vt 0.363636 0.000000
vt 0.272727 0.000000
vt 0.181818 0.000000
vt 0.818182 0.000000
vt 0.545455 0.000000
vt 0.454545 0.000000
vt 0.363636 0.000000
vt 0.272727 0.000000
vt 0.727273 0.000000
vt 0.636364 0.000000
vt 0.636364 0.000000
vt 0.727273 0.000000
vn 1.0000 0.0000 0.0000
vn 0.0000 0.0000 1.0000
vn -0.2392 0.9682 0.0734
vn -1.0000 0.0000 -0.0000
vn -0.4358 -0.8820 0.1791
vn 0.0000 0.0000 -1.0000
vn 0.0000 -1.0000 -0.0000
vn 0.0000 1.0000 0.0000
usemtl Red
s off
f 2/1/1 1/2/1 4/3/1
f 2/1/1 3/4/1 1/2/1
f 1/2/2 5/5/2 4/3/2
f 1/2/3 7/6/3 5/5/3
f 6/7/4 5/5/4 7/6/4
f 8/8/4 6/7/4 7/6/4
f 8/8/4 9/9/4 6/7/4
f 8/8/4 10/10/4 9/9/4
f 8/8/4 11/11/4 10/10/4
f 8/8/4 12/12/4 11/11/4
f 8/8/4 13/13/4 12/12/4
f 14/14/1 3/4/1 2/1/1
f 14/14/1 2/1/1 15/15/1
f 14/14/1 15/15/1 16/16/1
f 14/14/1 16/16/1 17/17/1
f 14/14/1 17/17/1 18/18/1
f 14/14/1 18/18/1 19/19/1
f 16/16/1 15/15/1 20/20/1
f 16/16/1 20/20/1 21/21/1
f 10/10/4 22/22/4 23/23/4
f 10/10/4 23/23/4 9/9/4
f 6/7/5 4/3/5 5/5/5
f 3/4/6 8/8/6 7/6/6
f 14/14/7 13/13/7 8/8/7
f 19/19/2 12/12/2 13/13/2
f 18/18/8 11/11/8 12/12/8
f 17/17/2 10/10/2 11/11/2
f 16/16/7 22/22/7 10/10/7
f 21/21/2 23/23/2 22/22/2
f 20/20/8 9/9/8 23/23/8
f 15/15/2 6/7/2 9/9/2
f 1/2/8 3/4/8 7/6/8
f 6/7/7 2/1/7 4/3/7
f 3/4/6 14/14/6 8/8/6
f 14/14/7 19/19/7 13/13/7
f 19/19/2 18/18/2 12/12/2
f 18/18/8 17/17/8 11/11/8
f 17/17/2 16/16/2 10/10/2
f 16/16/7 21/21/7 22/22/7
f 21/21/2 20/20/2 23/23/2
f 20/20/8 15/15/8 9/9/8
f 15/15/2 2/1/2 6/7/2
