# Blender v3.4.1 OBJ File: ''
# www.blender.org
mtllib f.mtl
o Text.011_Text.012
v 0.112478 0.752015 0.377264
v 0.112478 0.576015 -0.154736
v 0.112478 0.752015 -0.350736
v 0.112478 0.576015 0.377264
v -0.124976 0.693349 0.377264
v -0.124976 0.576015 -0.154736
v -0.124976 0.752015 -0.350736
v -0.124976 -0.611985 -0.350736
v -0.124976 0.198015 -0.154736
v -0.124976 0.022015 -0.154736
v -0.124976 -0.611985 -0.154736
v 0.112478 -0.611985 -0.350736
v 0.112478 0.198015 -0.154736
v 0.112478 0.022015 -0.154736
v 0.112478 -0.611985 -0.154736
v 0.112478 0.198015 0.377264
v 0.112478 0.022015 0.377264
v -0.124976 0.022015 0.377264
v -0.124976 0.198015 0.377264
vt 0.888889 0.000000
vt 0.000000 0.000000
vt 1.000000 0.000000
vt 0.111111 0.000000
vt 0.333333 0.000000
vt 0.111111 0.000000
vt 0.888889 0.000000
vt 0.222222 0.000000
vt 0.777778 0.000000
vt 0.444444 0.000000
vt 0.333333 0.000000
vt 0.222222 0.000000
vt 0.777778 0.000000
vt 0.444444 0.000000
vt 0.333333 0.000000
vt 0.666667 0.000000
vt 0.555556 0.000000
vt 0.555556 0.000000
vt 0.666667 0.000000
vn 1.0000 0.0000 0.0000
vn 0.0000 0.0000 1.0000
vn -0.2391 0.9679 0.0780
vn -1.0000 0.0000 -0.0000
vn -0.4346 -0.8795 0.1940
vn 0.0000 0.0000 -1.0000
vn 0.0000 -1.0000 0.0000
vn 0.0000 1.0000 0.0000
usemtl Red
s off
f 2/1/1 1/2/1 4/3/1
f 2/1/1 3/4/1 1/2/1
f 1/2/2 5/5/2 4/3/2
f 1/2/3 7/6/3 5/5/3
f 6/7/4 5/5/4 7/6/4
f 8/8/4 6/7/4 7/6/4
f 8/8/4 9/9/4 6/7/4
f 8/8/4 10/10/4 9/9/4
f 8/8/4 11/11/4 10/10/4
f 12/12/1 3/4/1 2/1/1
f 12/12/1 2/1/1 13/13/1
f 12/12/1 13/13/1 14/14/1
f 12/12/1 14/14/1 15/15/1
f 14/14/1 13/13/1 16/16/1
f 14/14/1 16/16/1 17/17/1
f 10/10/4 18/18/4 19/19/4
f 10/10/4 19/19/4 9/9/4
f 6/7/5 4/3/5 5/5/5
f 3/4/6 8/8/6 7/6/6
f 12/12/7 11/11/7 8/8/7
f 15/15/2 10/10/2 11/11/2
f 14/14/7 18/18/7 10/10/7
f 17/17/2 19/19/2 18/18/2
f 16/16/8 9/9/8 19/19/8
f 13/13/2 6/7/2 9/9/2
f 1/2/8 3/4/8 7/6/8
f 6/7/7 2/1/7 4/3/7
f 3/4/6 12/12/6 8/8/6
f 12/12/7 15/15/7 11/11/7
f 15/15/2 14/14/2 10/10/2
f 14/14/7 17/17/7 18/18/7
f 17/17/2 16/16/2 19/19/2
f 16/16/8 13/13/8 9/9/8
f 13/13/2 2/1/2 6/7/2
