# Blender v3.4.1 OBJ File: ''
# www.blender.org
mtllib l2.mtl
o Text_Text.001
v 0.107934 0.696119 -0.096727
v 0.107934 0.696119 -0.292727
v 0.107934 -0.667881 -0.292727
v 0.107934 -0.667881 0.519274
v 0.107934 -0.491881 0.519274
v 0.107934 -0.491881 -0.096727
v -0.129521 0.696119 -0.096727
v -0.129521 0.696119 -0.292727
v -0.129521 -0.667881 -0.292727
v -0.129521 -0.550548 0.519274
v -0.129521 -0.491881 -0.096727
vt 0.400000 0.000000
vt 0.200000 0.000000
vt 0.000000 0.000000
vt 1.000000 0.000000
vt 0.800000 0.000000
vt 0.600000 0.000000
vt 0.400000 0.000000
vt 0.000000 0.000000
vt 0.200000 0.000000
vt 1.000000 0.000000
vt 0.733333 0.000000
vn 1.0000 0.0000 0.0000
vn -1.0000 -0.0000 0.0000
vn 0.0000 0.0000 -1.0000
vn 0.0000 0.0000 1.0000
vn 0.0000 1.0000 0.0000
vn -0.2388 0.9667 0.0921
vn -0.4393 -0.8891 0.1285
vn 0.0000 -1.0000 0.0000
usemtl Red
s off
f 3/1/1 2/2/1 1/3/1
f 3/1/1 1/3/1 6/4/1
f 3/1/1 6/4/1 5/5/1
f 3/1/1 5/5/1 4/6/1
f 9/7/2 7/8/2 8/9/2
f 9/7/2 11/10/2 7/8/2
f 9/7/2 10/11/2 11/10/2
f 2/2/3 9/7/3 8/9/3
f 5/5/4 10/11/4 4/6/4
f 1/3/5 8/9/5 7/8/5
f 6/4/4 7/8/4 11/10/4
f 5/5/6 11/10/6 10/11/6
f 9/7/7 4/6/7 10/11/7
f 2/2/3 3/1/3 9/7/3
f 1/3/5 2/2/5 8/9/5
f 6/4/4 1/3/4 7/8/4
f 5/5/5 6/4/5 11/10/5
f 9/7/8 3/1/8 4/6/8
