# Blender 3.4.1
# www.blender.org
mtllib s.mtl
o Text.010
v -0.156852 -0.216197 0.041805
v -0.179165 -0.133328 -0.041806
v -0.049540 -0.094715 -0.041806
v -0.056425 -0.170808 0.041805
v -0.111224 -0.254518 -0.041806
v 0.168569 -0.250909 0.041805
v 0.020062 -0.287503 0.041805
v 0.115815 -0.277034 -0.041806
v 0.087268 -0.183410 0.041805
v -0.056098 -0.178920 -0.041806
v 0.149234 -0.161883 -0.041806
v -0.054621 -0.098827 0.041805
v 0.155521 0.031772 -0.041806
v 0.145519 0.020418 0.041805
v -0.128347 -0.018360 -0.041806
v -0.155176 -0.040155 0.041805
v 0.142211 0.202099 0.041805
v 0.049989 0.081506 0.041805
v 0.060376 0.093822 -0.041806
v 0.102916 0.242610 -0.041806
v 0.038035 0.154505 0.041805
v -0.005409 0.170971 -0.041806
v -0.134638 0.134355 -0.041806
v -0.090730 0.155019 0.041805
v -0.170509 0.220830 0.041805
v -0.035899 0.262316 0.041805
v -0.138941 0.237979 -0.041806
vn -0.0000 -0.0000 1.0000
vn -0.9638 0.0092 0.2663
vn -0.0000 -0.0000 -1.0000
vn -0.3650 -0.9056 0.2159
vn 0.2365 -0.9599 0.1507
vn 0.0870 0.9916 -0.0959
vn 0.9997 -0.0251 0.0063
vn 0.5118 -0.8590 -0.0111
vn 0.8525 -0.2474 -0.4605
vn -0.9764 -0.1599 -0.1449
vn -0.0039 -0.9815 -0.1913
vn -0.2935 0.9522 0.0845
vn 0.3061 0.9052 0.2948
vn 0.9925 0.0181 0.1212
vn -0.8459 -0.4742 -0.2443
vn -0.0960 -0.9682 -0.2312
vn -0.5100 0.8579 0.0630
vn -0.0812 0.9781 0.1917
vn 0.9954 -0.0775 0.0567
vn -0.8989 0.3973 -0.1849
vn 0.5243 -0.8499 -0.0527
vn -0.9322 -0.0387 -0.3599
vn -0.7351 -0.6268 0.2585
vn 0.2714 -0.9578 0.0942
vn -0.0185 0.9659 -0.2583
vn 0.9190 0.2293 -0.3208
vn 0.5303 0.6387 0.5575
vn -0.5091 0.8586 0.0604
vn -0.5635 -0.6831 0.4647
vt 0.025916 0.000000
vt 0.446376 0.000000
vt 0.321294 0.000000
vt 0.242760 0.000000
vt 0.042783 0.000000
vt 0.114858 0.000000
vt 0.076896 0.000000
vt 0.100491 0.000000
vt 0.157904 0.000000
vt 0.240666 0.000000
vt 0.127994 0.000000
vt 0.313975 0.000000
vt 0.458182 0.000000
vt 0.451019 0.000000
vt 0.955141 0.000000
vt 0.967851 0.000000
vt 0.530557 0.000000
vt 0.849965 0.000000
vt 0.836086 0.000000
vt 0.545996 0.000000
vt 0.772379 0.000000
vt 0.739039 0.000000
vt 0.658152 0.000000
vt 0.685226 0.000000
vt 0.654941 0.000000
vt 0.592162 0.000000
vt 0.638276 0.000000
s 0
usemtl Red
f 12/12/1 16/16/1 1/1/1
f 16/16/2 2/2/2 1/1/2
f 10/10/3 2/2/3 3/3/3
f 8/8/3 2/2/3 10/10/3
f 9/9/1 4/4/1 1/1/1
f 6/6/1 9/9/1 1/1/1
f 8/8/3 5/5/3 2/2/3
f 6/6/1 1/1/1 7/7/1
f 1/1/4 5/5/4 7/7/4
f 7/7/5 8/8/5 6/6/5
f 8/8/3 10/10/3 11/11/3
f 9/9/6 10/10/6 4/4/6
f 4/4/7 10/10/7 12/12/7
f 4/4/1 12/12/1 1/1/1
f 3/3/3 2/2/3 15/15/3
f 3/3/3 15/15/3 13/13/3
f 12/12/1 14/14/1 16/16/1
f 12/12/8 3/3/8 14/14/8
f 11/11/9 6/6/9 8/8/9
f 13/13/3 15/15/3 19/19/3
f 14/14/1 18/18/1 16/16/1
f 14/14/1 17/17/1 18/18/1
f 21/21/10 19/19/10 18/18/10
f 17/17/1 21/21/1 18/18/1
f 13/13/3 19/19/3 22/22/3
f 17/17/1 24/24/1 21/21/1
f 24/24/11 22/22/11 21/21/11
f 20/20/3 22/22/3 27/27/3
f 17/17/1 25/25/1 24/24/1
f 22/22/3 23/23/3 27/27/3
f 17/17/1 26/26/1 25/25/1
f 26/26/12 27/27/12 25/25/12
f 17/17/13 20/20/13 26/26/13
f 13/13/3 22/22/3 20/20/3
f 14/14/14 13/13/14 17/17/14
f 1/1/15 2/2/15 5/5/15
f 7/7/16 5/5/16 8/8/16
f 15/15/17 18/18/17 19/19/17
f 9/9/18 11/11/18 10/10/18
f 12/12/19 10/10/19 3/3/19
f 16/16/20 15/15/20 2/2/20
f 14/14/21 3/3/21 13/13/21
f 23/23/22 25/25/22 27/27/22
f 21/21/23 22/22/23 19/19/23
f 24/24/24 23/23/24 22/22/24
f 26/26/25 20/20/25 27/27/25
f 17/17/26 13/13/26 20/20/26
f 11/11/27 9/9/27 6/6/27
f 15/15/28 16/16/28 18/18/28
f 23/23/29 24/24/29 25/25/29
