# Blender v3.4.1 OBJ File: ''
# www.blender.org
mtllib o1.mtl
o Text.008_Text.009
v 0.118727 -0.083195 -0.769208
v -0.118727 -0.293106 -0.699432
v -0.118727 0.234068 -0.528041
v 0.118727 0.069198 -0.571520
v -0.118727 -0.287419 -0.470865
v 0.118727 -0.642560 -0.304326
v 0.118727 -0.415312 -0.323277
v -0.118727 -0.628411 -0.267459
v 0.118727 -0.513124 0.493490
v -0.118727 -0.628559 0.264647
v -0.118727 -0.334906 0.616481
v 0.118727 -0.448928 0.213234
v -0.118727 -0.490659 0.124688
v 0.118727 0.030394 0.727656
v -0.118727 0.206271 0.729362
v 0.118727 -0.126486 0.501724
v 0.118727 0.230382 0.488064
v 0.118727 0.543672 0.543414
v -0.118727 -0.007809 0.550151
v -0.118727 0.690009 0.326116
v -0.118727 0.524785 0.248672
v 0.118727 0.514428 0.256835
v -0.118727 0.304099 -0.712991
v -0.118727 0.525761 -0.257101
v 0.118727 0.524826 -0.282479
v 0.118727 0.563521 -0.553941
v 0.118727 0.756233 -0.000696
v -0.118727 0.703322 -0.343163
vt 0.039025 0.000000
vt 0.533847 0.000000
vt 0.475076 0.000000
vt 0.959704 0.000000
vt 0.148960 0.000000
vt 0.714794 0.000000
vt 0.930508 0.000000
vt 0.097223 0.000000
vt 0.864066 0.000000
vt 0.850073 0.000000
vt 0.182519 0.000000
vt 0.101198 0.000000
vt 0.155276 0.000000
vt 0.206564 0.000000
vt 0.765634 0.000000
vt 0.783156 0.000000
vt 0.250981 0.000000
vt 0.270513 0.000000
vt 0.729843 0.000000
vt 0.314270 0.000000
vt 0.671120 0.000000
vt 0.672801 0.000000
vt 0.342976 0.000000
vt 0.412887 0.000000
vt 0.592098 0.000000
vt 0.440322 0.000000
vt 0.595722 0.000000
vt 0.377394 0.000000
vn -1.0000 -0.0000 -0.0000
vn 1.0000 0.0000 0.0000
vn 0.3211 -0.6053 -0.7283
vn 0.3095 -0.9386 0.1523
vn -0.1949 0.9789 0.0613
vn 0.1747 0.6509 -0.7388
vn -0.2176 -0.0373 -0.9753
vn 0.2489 0.3272 0.9116
vn -0.0429 -0.9989 -0.0193
vn -0.2124 -0.5235 0.8252
vn 0.2790 0.3033 -0.9112
vn 0.2343 0.9055 0.3537
vn 0.2552 0.9131 -0.3180
vn -0.2940 0.4358 0.8507
vn -0.2640 -0.0219 -0.9643
vn -0.1409 -0.7821 -0.6071
vn -0.0595 -0.9982 -0.0003
vn -0.2373 -0.7458 0.6225
vn -0.1427 -0.2021 0.9689
vn 0.2576 -0.4760 -0.8409
vn -0.2946 0.6119 0.7340
vn -0.0041 -1.0000 -0.0019
vn 0.0754 -0.6786 0.7306
vn -0.2435 0.6591 -0.7115
vn -0.2439 0.9696 0.0193
vn 0.2952 0.9042 0.3086
vn 0.2495 0.1055 0.9626
vn 0.1587 0.6583 -0.7358
vn 0.1759 -0.3895 0.9041
vn -0.0009 -0.6313 -0.7755
usemtl Red
s off
f 2/1/1 3/2/1 23/3/1
f 2/1/1 5/4/1 3/2/1
f 1/5/2 4/6/2 7/7/2
f 6/8/3 2/1/3 1/5/3
f 2/1/1 13/9/1 5/4/1
f 6/8/2 1/5/2 7/7/2
f 6/8/2 7/7/2 12/10/2
f 6/8/2 12/10/2 9/11/2
f 8/12/1 10/13/1 2/1/1
f 9/11/4 10/13/4 6/8/4
f 13/9/1 10/13/1 11/14/1
f 2/1/1 10/13/1 13/9/1
f 7/7/5 13/9/5 12/10/5
f 13/9/1 11/14/1 19/15/1
f 12/10/2 16/16/2 9/11/2
f 16/16/2 14/17/2 9/11/2
f 19/15/1 11/14/1 15/18/1
f 16/16/6 13/9/6 19/15/6
f 16/16/2 17/19/2 14/17/2
f 16/16/7 19/15/7 17/19/7
f 17/19/2 18/20/2 14/17/2
f 18/20/8 15/18/8 14/17/8
f 19/15/1 15/18/1 21/21/1
f 17/19/2 22/22/2 18/20/2
f 21/21/1 15/18/1 20/23/1
f 21/21/1 20/23/1 28/24/1
f 22/22/9 21/21/9 25/25/9
f 22/22/2 25/25/2 18/20/2
f 25/25/2 26/26/2 18/20/2
f 28/24/1 24/27/1 21/21/1
f 23/3/1 24/27/1 28/24/1
f 23/3/1 3/2/1 24/27/1
f 25/25/10 3/2/10 4/6/10
f 26/26/2 25/25/2 4/6/2
f 1/5/2 26/26/2 4/6/2
f 1/5/11 23/3/11 26/26/11
f 27/28/12 20/23/12 18/20/12
f 26/26/2 27/28/2 18/20/2
f 26/26/13 28/24/13 27/28/13
f 4/6/14 5/4/14 7/7/14
f 1/5/15 2/1/15 23/3/15
f 6/8/16 8/12/16 2/1/16
f 6/8/17 10/13/17 8/12/17
f 9/11/18 11/14/18 10/13/18
f 11/14/19 14/17/19 15/18/19
f 21/21/20 17/19/20 19/15/20
f 18/20/21 20/23/21 15/18/21
f 25/25/22 21/21/22 24/27/22
f 25/25/23 24/27/23 3/2/23
f 26/26/24 23/3/24 28/24/24
f 27/28/25 28/24/25 20/23/25
f 7/7/26 5/4/26 13/9/26
f 4/6/27 3/2/27 5/4/27
f 16/16/28 12/10/28 13/9/28
f 11/14/29 9/11/29 14/17/29
f 21/21/30 22/22/30 17/19/30
