# Blender v3.4.1 OBJ File: ''
# www.blender.org
mtllib t.mtl
o Text.009_Text.010
v 0.126642 0.719167 0.572178
v 0.126642 0.543167 -0.567822
v 0.126642 0.719167 -0.567822
v 0.126642 0.543167 0.572178
v -0.110812 0.719167 0.572178
v -0.110812 0.543167 -0.567822
v -0.110812 0.719167 -0.567822
v -0.110812 0.543167 0.572178
v -0.110812 0.543167 -0.095822
v -0.110812 0.543167 0.100178
v -0.110812 -0.644834 -0.095822
v -0.110812 -0.644834 0.100178
v 0.126642 0.543167 0.100178
v 0.126642 -0.644834 -0.030489
v 0.126642 0.543167 -0.095822
vt 0.285714 0.000000
vt 0.000000 0.000000
vt 1.000000 0.000000
vt 0.142857 0.000000
vt 0.285714 0.000000
vt 1.000000 0.000000
vt 0.000000 0.000000
vt 0.142857 0.000000
vt 0.428571 0.000000
vt 0.857143 0.000000
vt 0.571429 0.000000
vt 0.714286 0.000000
vt 0.619048 0.000000
vt 0.428571 0.000000
vt 0.857143 0.000000
vn 1.0000 0.0000 -0.0000
vn -1.0000 -0.0000 0.0000
vn 0.0000 0.0000 1.0000
vn 0.0000 1.0000 -0.0000
vn 0.0000 -1.0000 0.0000
vn 0.0000 0.0000 -1.0000
vn 0.4799 -0.0959 0.8721
vn 0.2649 -0.0529 -0.9628
usemtl Red
s off
f 2/1/1 1/2/1 4/3/1
f 2/1/1 3/4/1 1/2/1
f 6/5/2 8/6/2 5/7/2
f 6/5/2 5/7/2 7/8/2
f 9/9/3 8/6/3 6/5/3
f 10/10/3 8/6/3 9/9/3
f 11/11/2 12/12/2 10/10/2
f 11/11/2 10/10/2 9/9/2
f 1/2/4 7/8/4 5/7/4
f 14/13/1 15/14/1 13/15/1
f 13/15/4 15/14/4 4/3/4
f 15/14/3 2/1/3 4/3/3
f 4/3/3 5/7/3 8/6/3
f 13/15/5 8/6/5 10/10/5
f 12/12/3 13/15/3 10/10/3
f 2/1/5 9/9/5 6/5/5
f 14/13/5 12/12/5 11/11/5
f 15/14/6 11/11/6 9/9/6
f 3/4/6 6/5/6 7/8/6
f 1/2/4 3/4/4 7/8/4
f 4/3/3 1/2/3 5/7/3
f 13/15/5 4/3/5 8/6/5
f 12/12/7 14/13/7 13/15/7
f 2/1/5 15/14/5 9/9/5
f 15/14/8 14/13/8 11/11/8
f 3/4/6 2/1/6 6/5/6
