# Blender v3.4.1 OBJ File: 'text.blend'
# www.blender.org
mtllib l1.mtl
o Text.004_Text.020
v 0.132594 -0.194177 0.035589
v 0.145938 -0.167381 0.001254
v 0.094740 -0.155058 0.043560
v -0.161167 -0.196764 0.035504
v 0.038833 -0.098179 0.031222
v -0.003167 -0.110458 -0.000110
v 0.129607 -0.197009 -0.038412
v 0.054049 0.312527 -0.039422
v 0.028856 -0.111693 -0.036939
v 0.035721 0.290138 -0.015432
v 0.127002 0.312701 0.039737
v 0.042573 0.308741 0.029873
v 0.138938 0.319359 -0.025209
v -0.177834 -0.128648 -0.029620
v -0.158411 -0.116663 0.034555
v -0.161492 -0.193544 -0.036205
vn 0.9301 0.0073 0.3672
vn -0.0186 -0.0047 -0.9998
vn -0.8136 0.0449 -0.5797
vn -0.1577 0.9728 -0.1698
vn -0.9893 0.0096 0.1457
vn 0.1633 0.0223 -0.9863
vn -0.0031 0.2091 0.9779
vn -0.9583 0.0363 0.2833
vn -0.0122 -0.9989 -0.0448
vn 0.0015 -0.1983 0.9801
vn 0.8856 -0.4641 -0.0180
vn 0.0088 -0.9992 0.0379
vn -0.9897 0.0093 0.1430
vn -0.1946 0.0214 0.9806
vn 0.2003 -0.0058 0.9797
vn -0.0573 0.9942 0.0914
vn -0.0075 0.0084 -0.9999
vn 0.9265 -0.0071 -0.3761
vn -0.8219 0.5597 -0.1055
vn -0.0868 0.9954 0.0400
vn -0.0945 0.9634 -0.2509
vn -0.0336 0.0130 0.9994
vn -0.0753 0.9841 -0.1610
vn -0.9699 -0.2436 -0.0065
vn 0.9828 0.0241 0.1831
vn -0.1162 0.0044 0.9932
vn -0.0426 0.0902 -0.9950
vn -0.0851 0.9906 -0.1072
usemtl Red
s off
f 2//1 11//1 1//1
f 7//2 9//2 8//2
f 8//3 9//3 10//3
f 9//4 6//4 5//4
f 10//5 5//5 12//5
f 13//6 7//6 8//6
f 15//7 3//7 5//7
f 14//8 4//8 15//8
f 7//9 4//9 16//9
f 3//10 4//10 1//10
f 2//11 1//11 7//11
f 7//12 1//12 4//12
f 10//13 9//13 5//13
f 11//14 5//14 3//14
f 11//15 3//15 1//15
f 13//16 12//16 11//16
f 16//17 9//17 7//17
f 13//18 2//18 7//18
f 8//19 10//19 12//19
f 8//20 12//20 13//20
f 6//21 15//21 5//21
f 15//22 4//22 3//22
f 6//23 14//23 15//23
f 14//24 16//24 4//24
f 2//25 13//25 11//25
f 11//26 12//26 5//26
f 16//27 14//27 9//27
f 6//28 9//28 14//28
