# Blender v3.4.1 OBJ File: 'text.blend'
# www.blender.org
mtllib d.mtl
o Text.015_Text.031
v -0.027681 -0.012743 0.041806
v -0.127096 -0.091901 0.041806
v -0.027027 -0.023417 -0.041805
v -0.128596 -0.086325 -0.041805
v -0.011234 -0.243611 0.041806
v -0.061141 -0.200170 -0.041805
v 0.047557 -0.158825 0.041805
v 0.298688 -0.263146 0.041805
v 0.298688 -0.263146 -0.041806
v 0.064789 -0.258334 -0.041805
v 0.298687 0.261056 -0.041806
v 0.187537 0.169984 -0.041806
v 0.187537 -0.171357 -0.041806
v 0.052444 -0.161091 -0.041805
v 0.187537 -0.171357 0.041805
v 0.187537 0.169984 0.041805
v 0.298687 0.261056 0.041805
v 0.055346 0.256374 0.041805
v -0.070220 0.194106 0.041806
v -0.131670 0.077341 -0.041805
v -0.132808 0.071788 0.041806
v 0.038527 0.157200 0.041805
v 0.034268 0.154727 -0.041805
v -0.066421 0.197740 -0.041805
v 0.060386 0.257278 -0.041805
vt 0.844609 0.000000
vt 0.532185 0.000000
vt 0.064198 0.000000
vt 0.851041 0.000000
vt 0.060163 0.000000
vt 0.561069 0.000000
vt 0.906977 0.000000
vt 0.910152 0.000000
vt 0.204855 0.000000
vt 0.159448 0.000000
vt 0.324675 0.000000
vt 0.324675 0.000000
vt 0.258975 0.000000
vt 0.831169 0.000000
vt 0.337662 0.000000
vt 0.844156 0.000000
vt 0.844156 0.000000
vt 0.831169 0.000000
vt 0.337662 0.000000
vt 0.402913 0.000000
vt 0.509112 0.000000
vt 0.762831 0.000000
vt 0.759833 0.000000
vt 0.504994 0.000000
vt 0.399376 0.000000
vn 0.0000 0.0000 1.0000
vn -0.0000 -0.0000 -1.0000
vn -0.9997 -0.0188 -0.0149
vn -0.8602 -0.5097 -0.0186
vn -0.0206 -0.9998 0.0000
vn -0.4094 -0.8864 -0.2162
vn 1.0000 0.0000 0.0000
vn 0.0758 0.9971 -0.0000
vn -1.0000 -0.0000 0.0000
vn 0.0990 -0.9948 0.0244
vn 0.9445 -0.3250 0.0489
vn -0.8790 0.4764 -0.0192
vn -0.4249 0.9051 -0.0158
vn -0.0158 0.9999 0.0000
vn 0.8655 0.4996 0.0370
vn -0.9993 -0.0349 0.0156
vn -0.7849 -0.5994 0.1571
vn -0.0625 -0.9911 0.1177
vn 0.0892 0.9958 -0.0218
vn 0.0855 -0.9963 0.0000
vn 0.9312 -0.3628 -0.0367
vn -0.8901 0.4554 0.0181
vn -0.4442 0.8957 0.0187
vn -0.0192 0.9998 0.0097
vn 0.8878 0.4573 -0.0514
usemtl Red
s off
f 1/1/1 21/2/1 2/3/1
f 3/4/2 4/5/2 20/6/2
f 14/7/2 4/5/2 3/4/2
f 7/8/1 1/1/1 2/3/1
f 7/8/1 2/3/1 5/9/1
f 14/7/2 6/10/2 4/5/2
f 8/11/1 7/8/1 5/9/1
f 4/5/3 21/2/3 20/6/3
f 9/12/2 10/13/2 6/10/2
f 9/12/2 12/14/2 11/15/2
f 9/12/2 13/16/2 12/14/2
f 9/12/2 14/7/2 13/16/2
f 9/12/2 6/10/2 14/7/2
f 8/11/1 15/17/1 7/8/1
f 8/11/1 16/18/1 15/17/1
f 8/11/1 17/19/1 16/18/1
f 16/18/1 17/19/1 18/20/1
f 16/18/1 18/20/1 19/21/1
f 16/18/1 19/21/1 22/22/1
f 12/14/2 23/23/2 24/24/2
f 23/23/2 20/6/2 24/24/2
f 1/1/1 22/22/1 21/2/1
f 3/4/2 20/6/2 23/23/2
f 22/22/1 19/21/1 21/2/1
f 12/14/2 24/24/2 25/25/2
f 12/14/2 25/25/2 11/15/2
f 6/10/4 2/3/4 4/5/4
f 8/11/5 10/13/5 9/12/5
f 5/9/6 6/10/6 10/13/6
f 17/19/7 9/12/7 11/15/7
f 14/7/8 15/17/8 13/16/8
f 15/17/9 12/14/9 13/16/9
f 12/14/10 22/22/10 23/23/10
f 23/23/11 1/1/11 3/4/11
f 20/6/12 19/21/12 24/24/12
f 24/24/13 18/20/13 25/25/13
f 25/25/14 17/19/14 11/15/14
f 3/4/15 7/8/15 14/7/15
f 4/5/16 2/3/16 21/2/16
f 6/10/17 5/9/17 2/3/17
f 8/11/18 5/9/18 10/13/18
f 17/19/7 8/11/7 9/12/7
f 14/7/19 7/8/19 15/17/19
f 15/17/9 16/18/9 12/14/9
f 12/14/20 16/18/20 22/22/20
f 23/23/21 22/22/21 1/1/21
f 20/6/22 21/2/22 19/21/22
f 24/24/23 19/21/23 18/20/23
f 25/25/24 18/20/24 17/19/24
f 3/4/25 1/1/25 7/8/25
