# Blender v3.4.1 OBJ File: 'text.blend'
# www.blender.org
mtllib g.mtl
o Text.005_Text.021
v -0.013194 -0.039579 0.041805
v -0.221154 0.052927 0.041805
v -0.013194 0.052928 -0.000000
v -0.013194 -0.039579 -0.041806
v -0.221154 0.052927 -0.041805
v -0.112513 -0.039579 -0.041806
v -0.213026 -0.226516 -0.041805
v -0.111412 -0.150313 -0.041806
v -0.181899 -0.236245 0.041805
v -0.112513 -0.039579 0.041805
v 0.126055 -0.206192 -0.041806
v 0.109520 -0.223408 0.041805
v -0.012645 -0.249859 -0.041806
v -0.094189 -0.156391 0.041805
v 0.212621 -0.031324 0.041805
v 0.201263 -0.075753 -0.041806
v 0.029200 -0.149051 -0.041806
v 0.047804 -0.129208 0.041805
v 0.090304 -0.044447 0.041805
v 0.202758 0.112365 -0.041806
v 0.101785 0.018395 -0.041806
v 0.171010 0.187214 0.041805
v 0.089940 0.084372 0.041805
v 0.051628 0.152841 -0.041806
v 0.026497 0.175288 0.041805
v 0.091961 0.262657 -0.041806
v -0.016642 0.297861 0.041805
v -0.052574 0.202708 -0.041806
v -0.076616 0.199978 0.041805
v -0.183649 0.170358 -0.041806
v -0.183207 0.170743 0.041805
v -0.220179 0.259810 -0.041806
v -0.220632 0.259420 0.041805
v -0.100041 0.290371 -0.041806
vt 1.000000 0.000000
vt 0.000000 0.000000
vt 0.006211 0.000000
vt 0.006211 0.000000
vt 1.000000 0.000000
vt 0.993789 0.000000
vt 0.019841 0.000000
vt 0.986216 0.000000
vt 0.869434 0.000000
vt 0.222827 0.000000
vt 0.969400 0.000000
vt 0.993789 0.000000
vt 0.045006 0.000000
vt 0.213956 0.000000
vt 0.165119 0.000000
vt 0.852725 0.000000
vt 0.293818 0.000000
vt 0.279556 0.000000
vt 0.764200 0.000000
vt 0.795244 0.000000
vt 0.731070 0.000000
vt 0.340086 0.000000
vt 0.687862 0.000000
vt 0.668358 0.000000
vt 0.368088 0.000000
vt 0.620485 0.000000
vt 0.606737 0.000000
vt 0.446979 0.000000
vt 0.407024 0.000000
vt 0.533751 0.000000
vt 0.540605 0.000000
vt 0.534008 0.000000
vt 0.540932 0.000000
vt 0.476632 0.000000
vn 0.1802 0.4051 0.8963
vn -0.0000 1.0000 0.0000
vn 0.1802 0.4051 -0.8963
vn -0.0000 0.0000 -1.0000
vn 0.0000 0.0000 1.0000
vn -0.9996 -0.0291 0.0000
vn 0.0427 -0.9688 0.2441
vn -0.1847 0.9647 -0.1879
vn -0.9904 -0.0028 -0.1381
vn -0.8166 -0.5698 -0.0925
vn -0.2317 -0.9678 -0.0982
vn 0.4869 0.8257 0.2847
vn 0.9622 0.1832 0.2014
vn 1.0000 0.0000 -0.0000
vn -0.9041 0.3919 0.1704
vn -0.1154 -0.9907 -0.0723
vn 0.2975 -0.9450 -0.1357
vn 0.2394 -0.9702 0.0372
vn 0.9914 -0.0079 -0.1305
vn -0.9275 -0.3460 0.1416
vn -0.4290 -0.8964 0.1117
vn -0.9258 -0.3781 0.0066
vn -0.2465 0.9691 0.0032
vn 0.8643 -0.4983 0.0683
vn 0.1392 0.9643 -0.2252
vn 0.7852 0.5788 -0.2200
vn 1.0000 0.0099 -0.0000
vn -0.0089 0.9972 0.0743
vn 0.0000 -1.0000 0.0000
vn -0.9343 -0.1268 0.3331
vn -0.8901 0.4463 0.0921
vn 0.2645 -0.9644 0.0030
vn -0.9213 -0.3888 -0.0068
vn -0.1843 0.9781 0.0962
vn 0.8736 -0.4689 0.1305
vn 0.9702 0.1522 -0.1888
usemtl Red
s off
f 1/1/1 3/2/1 2/3/1
f 3/2/2 5/4/2 2/3/2
f 4/5/3 5/4/3 3/2/3
f 4/5/4 6/6/4 5/4/4
f 6/6/4 7/7/4 5/4/4
f 8/8/4 7/7/4 6/6/4
f 17/9/4 7/7/4 8/8/4
f 11/10/4 7/7/4 17/9/4
f 14/11/5 10/12/5 9/13/5
f 10/12/5 2/3/5 9/13/5
f 12/14/5 14/11/5 9/13/5
f 7/7/6 2/3/6 5/4/6
f 9/13/7 13/15/7 12/14/7
f 13/15/4 7/7/4 11/10/4
f 12/14/5 18/16/5 14/11/5
f 18/16/8 17/9/8 14/11/8
f 12/14/5 15/17/5 18/16/5
f 11/10/4 17/9/4 16/18/4
f 16/18/4 17/9/4 21/19/4
f 15/17/5 19/20/5 18/16/5
f 23/21/9 21/19/9 19/20/9
f 15/17/5 23/21/5 19/20/5
f 16/18/4 21/19/4 20/22/4
f 20/22/4 21/19/4 24/23/4
f 25/24/10 24/23/10 23/21/10
f 22/25/5 25/24/5 23/21/5
f 20/22/4 24/23/4 28/26/4
f 22/25/5 29/27/5 25/24/5
f 29/27/11 28/26/11 25/24/11
f 22/25/5 27/28/5 29/27/5
f 26/29/4 28/26/4 32/30/4
f 28/26/4 30/31/4 32/30/4
f 27/28/5 33/32/5 29/27/5
f 29/27/5 33/32/5 31/33/5
f 26/29/4 32/30/4 34/34/4
f 22/25/12 26/29/12 27/28/12
f 20/22/4 28/26/4 26/29/4
f 15/17/5 22/25/5 23/21/5
f 15/17/13 20/22/13 22/25/13
f 1/1/5 2/3/5 10/12/5
f 1/1/14 4/5/14 3/2/14
f 17/9/15 19/20/15 21/19/15
f 9/13/16 7/7/16 13/15/16
f 12/14/17 13/15/17 11/10/17
f 29/27/18 30/31/18 28/26/18
f 15/17/19 16/18/19 20/22/19
f 23/21/20 24/23/20 21/19/20
f 25/24/21 28/26/21 24/23/21
f 31/33/22 32/30/22 30/31/22
f 33/32/23 34/34/23 32/30/23
f 16/18/24 12/14/24 11/10/24
f 27/28/25 26/29/25 34/34/25
f 22/25/26 20/22/26 26/29/26
f 10/12/27 8/8/27 6/6/27
f 14/11/28 17/9/28 8/8/28
f 1/1/29 6/6/29 4/5/29
f 7/7/30 9/13/30 2/3/30
f 17/9/31 18/16/31 19/20/31
f 29/27/32 31/33/32 30/31/32
f 31/33/33 33/32/33 32/30/33
f 33/32/34 27/28/34 34/34/34
f 16/18/35 15/17/35 12/14/35
f 10/12/36 14/11/36 8/8/36
f 1/1/29 10/12/29 6/6/29
