# Blender v3.4.1 OBJ File: ''
# www.blender.org
mtllib r.mtl
o Text.012_Text.013
v 5.072000 1.364000 0.000000
v 5.072000 0.000000 0.000000
v 5.268000 1.196000 0.000000
v 5.072000 1.364000 0.237454
v 5.072000 0.000000 0.237454
v 5.268000 1.196000 0.237454
v 5.606543 1.162311 0.000000
v 5.690121 1.324444 0.000000
v 5.555166 1.178682 0.237454
v 5.676222 1.331101 0.237454
v 5.869329 1.039735 0.237454
v 5.569168 0.790097 0.237454
v 5.504197 0.775984 0.000000
v 5.880640 0.913934 0.000000
v 5.289617 0.608671 0.000000
v 5.827911 0.809197 0.237454
v 5.268000 0.592000 0.237454
v 5.909816 0.006715 0.237454
v 5.674400 0.652066 0.000000
v 5.674129 0.651245 0.237454
v 5.892000 0.000000 0.000000
v 6.117653 0.002973 0.000000
v 6.114844 0.006517 0.237454
v 5.553210 0.503905 0.000000
v 5.458482 0.578976 0.237454
v 5.268000 0.768000 0.237454
v 5.268000 0.000000 0.237454
v 5.268000 0.000000 0.000000
v 5.268000 0.768000 0.000000
v 5.652080 0.884695 0.000000
v 5.670729 1.008247 0.237454
vt 0.010753 0.000000
vt 0.000000 0.000000
vt 0.720430 0.000000
vt 0.659519 0.000000
vt 0.010753 0.000000
vt 0.720430 0.000000
vt 0.000000 0.000000
vt 0.662443 0.000000
vt 0.794940 0.000000
vt 0.777747 0.000000
vt 0.590403 0.000000
vt 0.558394 0.000000
vt 0.941537 0.000000
vt 0.528255 0.000000
vt 0.962269 0.000000
vt 0.900220 0.000000
vt 0.037658 0.000000
vt 0.449215 0.000000
vt 0.032258 0.000000
vt 0.449727 0.000000
vt 0.183061 0.000000
vt 0.085996 0.000000
vt 0.121145 0.000000
vt 0.196266 0.000000
vt 0.198017 0.000000
vt 0.182796 0.000000
vt 0.021505 0.000000
vt 1.000000 0.000000
vt 0.021505 0.000000
vt 1.000000 0.000000
vt 0.854181 0.000000
vn -0.0000 0.0000 -1.0000
vn -0.0000 -0.0000 1.0000
vn -1.0000 0.0000 0.0000
vn -0.8274 -0.5563 0.0778
vn -0.3655 -0.9195 0.1449
vn -0.5885 0.8005 0.1134
vn -0.9742 -0.1598 0.1597
vn 0.0544 0.9985 0.0000
vn 0.8331 0.5521 0.0333
vn 0.7165 -0.6976 -0.0016
vn 0.9747 -0.1751 0.1392
vn 0.8256 0.5643 0.0029
vn -0.0010 -0.9999 0.0149
vn 1.0000 0.0000 0.0000
vn -0.7798 -0.6150 -0.1167
vn -0.0680 -0.9948 -0.0760
vn 0.0000 -1.0000 0.0000
vn -0.0731 0.9966 -0.0392
vn -0.0602 -0.9982 0.0000
vn -0.8967 0.4175 -0.1468
vn -0.8196 -0.5558 -0.1390
vn 0.0638 0.9977 -0.0242
vn 0.8928 0.4143 -0.1770
vn 0.7818 -0.6157 -0.0980
vn 0.8258 0.5639 0.0014
vn 0.0132 -0.9995 0.0273
vn 0.9955 -0.0354 0.0881
vn -0.0338 0.9994 0.0000
vn -0.0989 -0.9940 0.0471
usemtl Red
s off
f 2/1/1 1/2/1 3/3/1
f 3/3/1 1/2/1 8/4/1
f 5/5/2 6/6/2 4/7/2
f 6/6/2 10/8/2 4/7/2
f 3/3/1 8/4/1 7/9/1
f 6/6/2 9/10/2 10/8/2
f 9/10/2 11/11/2 10/8/2
f 7/9/1 8/4/1 14/12/1
f 1/2/3 5/5/3 4/7/3
f 12/13/2 16/14/2 11/11/2
f 13/15/1 30/16/1 14/12/1
f 15/17/1 13/15/1 14/12/1
f 15/17/1 14/12/1 19/18/1
f 17/19/2 16/14/2 12/13/2
f 17/19/2 20/20/2 16/14/2
f 18/21/2 20/20/2 25/22/2
f 24/23/1 19/18/1 22/24/1
f 18/21/2 23/25/2 20/20/2
f 21/26/4 18/21/4 24/23/4
f 21/26/1 24/23/1 22/24/1
f 24/23/5 25/22/5 15/17/5
f 24/23/1 15/17/1 19/18/1
f 17/19/2 25/22/2 20/20/2
f 5/5/2 27/27/2 17/19/2
f 5/5/2 17/19/2 26/28/2
f 17/19/2 12/13/2 26/28/2
f 2/1/1 15/17/1 28/29/1
f 5/5/2 26/28/2 6/6/2
f 2/1/1 29/30/1 15/17/1
f 2/1/1 3/3/1 29/30/1
f 15/17/1 29/30/1 13/15/1
f 13/15/6 12/13/6 30/16/6
f 12/13/2 11/11/2 31/31/2
f 30/16/7 31/31/7 7/9/7
f 30/16/1 7/9/1 14/12/1
f 31/31/2 11/11/2 9/10/2
f 10/8/8 1/2/8 4/7/8
f 11/11/9 8/4/9 10/8/9
f 19/18/10 16/14/10 20/20/10
f 14/12/11 11/11/11 16/14/11
f 23/25/12 19/18/12 20/20/12
f 18/21/13 22/24/13 23/25/13
f 28/29/14 17/19/14 27/27/14
f 24/23/15 18/21/15 25/22/15
f 15/17/16 25/22/16 17/19/16
f 2/1/17 27/27/17 5/5/17
f 29/30/14 6/6/14 26/28/14
f 13/15/18 26/28/18 12/13/18
f 3/3/19 9/10/19 6/6/19
f 30/16/20 12/13/20 31/31/20
f 7/9/21 31/31/21 9/10/21
f 1/2/3 2/1/3 5/5/3
f 10/8/22 8/4/22 1/2/22
f 11/11/23 14/12/23 8/4/23
f 19/18/24 14/12/24 16/14/24
f 23/25/25 22/24/25 19/18/25
f 18/21/26 21/26/26 22/24/26
f 28/29/27 15/17/27 17/19/27
f 2/1/17 28/29/17 27/27/17
f 29/30/14 3/3/14 6/6/14
f 13/15/28 29/30/28 26/28/28
f 3/3/29 7/9/29 9/10/29
