# Blender 3.4.1
# www.blender.org
mtllib n.mtl
o Text.007
v 0.229841 -0.250897 0.040397
v 0.231975 -0.237122 0.028513
v 0.231981 -0.237667 -0.028465
v 0.214626 -0.261498 0.022379
v 0.162587 0.093995 0.041810
v 0.155051 -0.262654 -0.019867
v 0.159248 -0.254980 0.040057
v 0.132821 -0.247204 0.038098
v 0.132946 0.000899 0.038528
v 0.132822 0.000610 -0.038515
v 0.060472 0.006838 0.038776
v 0.040130 -0.018279 0.041446
v 0.048160 -0.019437 0.024814
v 0.018773 -0.064699 0.038270
v 0.000629 -0.099051 0.037215
v 0.018193 -0.071533 -0.023883
v -0.003827 -0.092379 0.040986
v 0.229968 -0.252419 -0.039838
v 0.218649 -0.237324 -0.041806
v 0.158883 0.119210 -0.041780
v 0.133295 -0.246498 -0.039889
v 0.052378 -0.008740 -0.035877
v 0.038058 -0.023539 -0.039775
v 0.002635 -0.083423 -0.041220
v -0.002421 -0.103180 -0.037556
v 0.065037 0.201691 0.041598
v 0.228879 0.248726 0.040871
v 0.231752 0.252040 0.035810
v 0.212005 0.261937 -0.000267
v 0.093990 0.257563 0.029121
v 0.134020 0.055958 0.000721
v 0.140217 0.062748 0.037063
v 0.123832 0.086313 0.038612
v 0.105662 0.086835 0.040118
v 0.112746 0.080133 0.014406
v 0.077494 0.032239 0.035352
v 0.086819 0.054758 0.037468
v 0.002920 0.101893 0.040998
v 0.027786 0.150416 0.026519
v 0.106536 0.261411 -0.021614
v 0.095452 0.251230 0.039867
v 0.071007 0.225037 0.034142
v 0.029152 0.147164 0.038918
v 0.229406 0.250652 -0.039670
v 0.140938 0.060897 -0.037764
v 0.124654 0.085719 -0.037446
v 0.094379 0.062359 -0.026217
v 0.105876 0.086223 -0.041245
v 0.073656 0.029311 -0.037412
v 0.075861 0.044279 -0.041069
v 0.060530 0.188846 -0.041039
v 0.020301 0.135385 -0.038542
v 0.013613 0.109691 -0.041156
v -0.000612 0.099203 -0.037206
v 0.029586 0.153597 -0.025887
v 0.093957 0.250442 -0.040749
v 0.074574 0.230701 -0.036699
v 0.056726 0.196697 -0.036884
v -0.063945 -0.204220 0.038831
v -0.037297 -0.168505 0.022590
v -0.049515 -0.167917 0.041338
v -0.074433 -0.231338 0.036602
v -0.093897 -0.250927 0.040798
v -0.091739 -0.258310 -0.028935
v -0.105674 -0.262185 0.023141
v -0.020999 -0.135968 0.038229
v -0.106617 -0.086293 0.041269
v -0.042068 0.015764 0.041033
v -0.065829 -0.014126 0.038528
v -0.069872 -0.016950 0.019566
v -0.089413 -0.060468 0.038535
v -0.094144 -0.058975 -0.024030
v -0.113552 -0.078814 -0.000115
v -0.124087 -0.085235 0.037626
v -0.133643 -0.055257 -0.000430
v -0.161356 -0.095191 0.041797
v -0.140330 -0.060729 0.037767
v -0.218997 -0.250440 0.041757
v -0.216661 -0.261522 0.021873
v -0.230170 -0.248672 0.039876
v -0.232425 -0.251436 -0.029172
v -0.232785 -0.237529 0.027549
v -0.054312 -0.195640 -0.026665
v -0.063655 -0.199711 -0.041422
v -0.090832 -0.251110 -0.039892
v -0.214716 -0.261205 -0.024473
v -0.028157 -0.145989 -0.038820
v -0.055074 0.003280 -0.041071
v -0.011950 0.060499 -0.041192
v -0.065443 -0.020225 -0.039044
v -0.080388 -0.042301 -0.040355
v -0.106688 -0.085144 -0.041094
v -0.123886 -0.085833 -0.038816
v -0.135432 -0.060635 -0.027936
v -0.145588 -0.060522 -0.039933
v -0.228821 0.251745 -0.040806
v -0.229788 -0.248808 -0.040849
v -0.232888 0.237827 -0.024054
v -0.162000 -0.092941 -0.041803
v -0.012624 0.068445 0.039713
v -0.027264 0.055554 0.027236
v -0.133242 0.016705 0.038192
v -0.133025 0.246468 0.038029
v -0.155548 0.261728 -0.000605
v -0.159532 0.253959 0.040122
v -0.214610 0.260762 0.021004
v -0.230482 0.250541 0.039881
v -0.046518 0.022087 -0.026832
v -0.018954 0.067640 -0.037140
v -0.133113 0.016262 -0.038233
v -0.133130 0.245857 -0.038214
v -0.158927 0.253627 -0.040227
vn 1.0000 0.0005 0.0001
vn 0.0485 -0.8782 0.4758
vn -0.0743 -0.9885 0.1318
vn -0.2891 -0.9468 0.1415
vn -1.0000 0.0005 0.0016
vn 0.7345 -0.5531 0.3931
vn 0.3964 -0.2366 0.8870
vn -0.0077 -0.1350 -0.9908
vn -0.0221 -0.0036 -0.9998
vn -0.0488 -0.8026 -0.5946
vn -0.1477 0.0052 -0.9890
vn 0.7941 -0.4602 -0.3970
vn 0.7160 -0.4099 -0.5651
vn 0.0163 -0.0009 0.9999
vn -0.9822 0.1189 0.1453
vn 0.0500 -0.5883 0.8071
vn -0.0070 -0.9681 0.2504
vn 0.0261 -0.0037 0.9997
vn -0.6959 0.4297 0.5754
vn -0.8390 0.4964 0.2227
vn -0.0193 0.9973 0.0709
vn -0.5755 0.3787 0.7248
vn -0.8184 0.5273 0.2285
vn 0.9995 0.0046 -0.0311
vn 0.0079 0.0118 -0.9999
vn 0.0470 0.9656 -0.2558
vn -0.4242 0.0683 -0.9030
vn 0.8461 -0.5084 -0.1601
vn 0.7776 -0.5576 -0.2906
vn 0.8721 -0.4887 -0.0255
vn 0.4269 -0.2735 -0.8619
vn -0.0046 0.0042 -1.0000
vn -0.2846 0.1701 -0.9435
vn -0.8598 0.4994 -0.1063
vn -0.3925 0.1936 -0.8991
vn -0.8854 0.4648 -0.0074
vn -0.4472 0.2394 -0.8618
vn -0.4194 0.2317 -0.8777
vn -0.5690 0.1521 -0.8082
vn -0.7784 0.5738 -0.2547
vn 0.6832 -0.5647 0.4629
vn 0.7801 -0.3446 0.5222
vn 0.4263 -0.2366 0.8731
vn 0.4169 -0.2200 0.8819
vn 0.3016 -0.1781 0.9366
vn 0.0053 0.0014 1.0000
vn -0.1061 0.6952 0.7109
vn -0.6513 -0.7570 0.0516
vn 0.2298 -0.0264 0.9729
vn 0.0103 -0.0041 0.9999
vn 0.7865 -0.5023 -0.3593
vn 0.8592 -0.5114 -0.0164
vn -0.0744 -0.0017 0.9972
vn -0.0059 -1.0000 -0.0071
vn 0.8563 -0.5130 -0.0606
vn 0.5073 -0.2809 -0.8147
vn -0.0004 0.0014 -1.0000
vn 0.8796 -0.4738 -0.0428
vn 0.4431 -0.2511 -0.8606
vn -0.0012 0.0024 -1.0000
vn -0.5026 0.2919 0.8137
vn -0.8133 0.5733 -0.0998
vn -0.8219 0.5619 -0.0935
vn -0.8164 0.5343 -0.2193
vn -0.8373 0.5171 -0.1774
vn -0.1078 0.8165 -0.5672
vn 0.6487 0.5322 -0.5441
vn 0.9976 -0.0378 -0.0575
vn -0.8472 0.4931 0.1977
vn -0.7747 0.4442 0.4500
vn 0.2811 0.9372 0.2063
vn -0.0446 0.8937 0.4464
vn 0.0543 0.9798 0.1922
vn -0.8648 0.5017 -0.0174
vn -0.3361 0.1934 -0.9218
vn -0.4020 0.2096 -0.8913
vn -0.8618 0.5072 -0.0071
vn -0.7621 0.5738 -0.2999
vn -0.8887 0.4538 -0.0655
vn 1.0000 0.0001 -0.0014
vn 0.2970 0.9302 -0.2155
vn -0.9993 0.0038 0.0369
vn 0.9884 -0.1518 0.0016
vn -0.0045 -0.0050 1.0000
vn 0.9839 0.0017 0.1787
vn 0.8130 -0.4028 0.4205
vn 0.8445 -0.5332 0.0507
vn 0.8829 -0.4676 0.0432
vn 0.4101 -0.2487 0.8775
vn 0.9904 -0.1384 0.0042
vn 0.5583 -0.8295 0.0166
vn 0.1033 -0.9875 -0.1186
vn -0.5897 -0.8076 -0.0109
vn -1.0000 -0.0019 -0.0061
vn 0.8761 -0.4815 -0.0240
vn 0.6469 -0.4673 -0.6026
vn 0.8031 -0.3009 -0.5143
vn 0.0031 0.0047 1.0000
vn 0.0124 0.8622 0.5064
vn -0.6547 -0.7150 0.2452
vn 0.0266 0.9677 0.2509
vn -0.2812 0.0557 0.9580
vn -0.0606 -0.1074 0.9924
vn -0.9998 0.0206 0.0015
vn 0.6297 -0.3270 0.7047
vn -0.0269 -0.0224 0.9994
vn 0.7954 -0.4960 0.3484
vn 0.8096 -0.5009 0.3060
vn 0.8199 -0.5160 0.2481
vn -0.8178 -0.5337 -0.2155
vn -0.0104 0.0005 0.9999
vn -0.0068 0.0391 0.9992
vn -0.7053 0.5646 0.4287
vn -0.7373 0.3692 0.5658
vn 0.9844 0.0012 -0.1758
vn 0.1720 0.0005 -0.9851
vn 0.4930 0.8695 -0.0313
vn 0.0227 0.0039 -0.9997
vn 0.0026 0.8668 -0.4986
vn -0.9782 0.1337 -0.1587
vn 0.0078 0.0371 0.9993
vn -0.0844 -0.0426 -0.9955
vn 0.6983 -0.7158 -0.0025
vn -0.0048 -0.9941 -0.1082
vn 0.1809 -0.3058 -0.9348
vn 0.8506 -0.5253 -0.0237
vn 0.9200 -0.3869 0.0630
vn 0.7457 -0.2598 -0.6135
vn 0.8716 -0.4894 -0.0263
vn 0.5382 -0.3149 -0.7817
vn -0.0036 -0.0104 -0.9999
vn -0.8708 0.4917 -0.0001
vn -0.8643 0.4966 -0.0805
vn -0.8163 0.5776 0.0051
vn -0.7190 0.6915 -0.0701
vn -0.5810 0.8098 -0.0822
vn -0.0030 0.0064 -1.0000
vn -0.8654 0.5012 0.0007
vn -0.8500 0.5254 -0.0387
vn 0.7809 -0.3463 0.5198
vn 0.7163 -0.6913 0.0954
vn 0.8793 -0.4718 0.0653
vn 0.0015 0.0019 1.0000
vn 0.6029 -0.7913 0.1024
vn -0.8963 0.4365 0.0782
vn -0.0061 -0.0026 1.0000
vn 0.0011 0.0016 1.0000
vn -0.6707 0.7385 0.0683
vn -0.2788 0.1420 0.9498
vn -0.8152 0.5150 -0.2652
vn 0.7221 0.6199 0.3070
vn 0.0233 0.9845 0.1740
vn 0.0008 -0.8434 0.5372
vn 0.0958 0.0578 0.9937
vn 0.9831 -0.0909 0.1591
vn 0.8347 -0.4894 -0.2524
vn -0.2135 -0.8638 0.4563
vn -0.9816 -0.1866 0.0395
vn 0.8587 -0.5123 -0.0144
vn 0.7505 0.6377 -0.1735
vn 0.0063 -0.0331 -0.9994
vn 0.0210 -0.9974 -0.0686
vn 0.8499 -0.5217 -0.0738
vn -0.0143 -0.0078 -0.9999
vn -0.9140 0.3954 -0.0912
vn -0.0014 0.0181 -0.9998
vn -0.0609 0.9849 -0.1623
vn -0.0003 -0.8357 -0.5492
vn 0.7582 -0.1089 -0.6428
vn -0.4776 -0.8782 -0.0260
vn 0.1108 0.0042 0.9938
vn -1.0000 -0.0009 -0.0061
vn 0.0118 0.0073 -0.9999
vn 0.0744 0.0198 -0.9970
vn -0.0019 -0.0053 -1.0000
vn -0.0143 0.0001 -0.9999
vn -0.0040 0.0025 1.0000
vn -0.7643 0.3340 0.5517
vn -0.5368 0.2800 -0.7959
vn -0.6359 0.4532 0.6247
vn -0.8620 0.4949 0.1101
vn 1.0000 -0.0009 0.0017
vn -0.0102 0.0035 0.9999
vn 0.1094 0.0035 -0.9940
vn -0.1660 -0.0001 0.9861
vn -0.9784 -0.0006 0.2069
vn 0.0017 -0.0054 -1.0000
vn -0.0007 0.0011 -1.0000
vn -0.0000 -0.0021 -1.0000
vn -0.4465 0.0683 -0.8922
vn -0.8569 0.5153 -0.0139
vn 1.0000 -0.0065 0.0017
vn 0.5695 0.8219 -0.0074
vn 0.1029 0.0053 -0.9947
vn -0.0637 0.9895 -0.1297
vn -0.9755 0.0014 -0.2200
vn 0.0082 0.0045 -1.0000
vn -0.9647 0.2628 -0.0159
vn -0.5402 0.8415 0.0014
vn -0.0974 -0.0041 0.9952
vn 0.8716 -0.0069 0.4902
vn 0.0067 0.8348 0.5505
vn -0.7139 -0.5267 0.4614
vn 0.2882 -0.1326 0.9484
vn -0.7922 -0.5601 -0.2423
vn 0.0445 -0.0864 0.9953
vn 0.8629 -0.5050 0.0206
vn -0.8846 0.4502 0.1216
vn -0.7975 0.5561 0.2341
vn 0.8138 0.5381 0.2196
vn -0.0108 -0.8740 0.4858
vn 0.8089 -0.4393 -0.3908
vn 0.8081 0.5028 -0.3069
vn -0.0092 -0.8013 -0.5982
vn -0.4033 -0.8690 -0.2866
vn 0.0789 0.0006 0.9969
vn -0.0036 0.0048 1.0000
vn 0.0778 0.0001 -0.9970
vn -0.0247 0.9798 -0.1982
vn -0.9721 0.0019 -0.2345
s 0
usemtl Red
f 2//1 3//1 28//1
f 4//2 1//2 7//2
f 4//3 7//3 6//3
f 6//4 7//4 8//4
f 10//5 8//5 9//5
f 13//6 11//6 12//6
f 14//7 17//7 15//7
f 19//8 18//8 21//8
f 19//9 21//9 20//9
f 18//10 6//10 21//10
f 20//11 21//11 10//11
f 23//12 16//12 24//12
f 50//13 23//13 24//13
f 5//14 1//14 27//14
f 31//15 9//15 32//15
f 34//16 33//16 5//16
f 35//17 33//17 34//17
f 12//18 34//18 26//18
f 43//19 38//19 26//19
f 43//20 39//20 38//20
f 40//21 30//21 29//21
f 42//22 26//22 41//22
f 26//23 39//23 43//23
f 28//24 3//24 44//24
f 44//25 20//25 56//25
f 40//26 29//26 44//26
f 45//27 20//27 10//27
f 35//28 47//28 48//28
f 48//29 47//29 50//29
f 49//30 13//30 22//30
f 49//31 22//31 50//31
f 20//32 53//32 51//32
f 52//33 51//33 53//33
f 55//34 54//34 109//34
f 53//35 54//35 52//35
f 57//36 58//36 42//36
f 51//37 58//37 57//37
f 57//38 56//38 51//38
f 51//39 55//39 58//39
f 52//40 55//40 51//40
f 60//41 66//41 61//41
f 59//42 62//42 60//42
f 63//43 62//43 59//43
f 15//44 17//44 66//44
f 61//45 66//45 17//45
f 68//46 61//46 17//46
f 74//47 76//47 67//47
f 81//48 79//48 80//48
f 76//49 77//49 102//49
f 78//50 67//50 76//50
f 83//51 84//51 87//51
f 62//52 64//52 60//52
f 7//53 9//53 8//53
f 65//54 79//54 86//54
f 25//55 60//55 87//55
f 25//56 87//56 24//56
f 50//57 24//57 88//57
f 87//58 60//58 83//58
f 24//59 87//59 84//59
f 24//60 84//60 92//60
f 90//61 88//61 91//61
f 70//62 91//62 72//62
f 91//63 70//63 90//63
f 92//64 73//64 72//64
f 92//65 72//65 91//65
f 93//66 92//66 99//66
f 95//67 94//67 93//67
f 110//68 75//68 94//68
f 39//69 101//69 38//69
f 101//70 68//70 100//70
f 104//71 105//71 103//71
f 106//72 107//72 105//72
f 106//73 105//73 104//73
f 109//74 101//74 39//74
f 89//75 109//75 54//75
f 54//76 53//76 89//76
f 70//77 101//77 108//77
f 88//78 108//78 89//78
f 88//79 70//79 108//79
f 103//80 110//80 111//80
f 112//81 104//81 111//81
f 98//82 82//82 107//82
f 3//83 2//83 1//83
f 5//84 7//84 1//84
f 2//85 27//85 1//85
f 13//86 12//86 14//86
f 13//87 14//87 16//87
f 14//88 15//88 16//88
f 12//89 17//89 14//89
f 3//90 1//90 18//90
f 18//91 1//91 4//91
f 18//92 4//92 6//92
f 21//93 6//93 8//93
f 10//94 21//94 8//94
f 22//95 13//95 16//95
f 22//96 16//96 23//96
f 16//97 25//97 24//97
f 26//98 5//98 27//98
f 27//99 30//99 41//99
f 32//100 35//100 31//100
f 29//101 30//101 28//101
f 32//102 9//102 5//102
f 5//103 33//103 32//103
f 31//104 10//104 9//104
f 37//105 11//105 36//105
f 5//106 26//106 34//106
f 37//107 35//107 34//107
f 12//108 37//108 34//108
f 36//109 11//109 13//109
f 31//110 46//110 45//110
f 26//111 38//111 12//111
f 41//112 26//112 27//112
f 41//113 30//113 42//113
f 42//114 39//114 26//114
f 44//115 3//115 18//115
f 44//116 18//116 19//116
f 44//117 29//117 28//117
f 44//118 19//118 20//118
f 56//119 40//119 44//119
f 31//120 45//120 10//120
f 59//121 78//121 63//121
f 20//122 45//122 46//122
f 35//123 37//123 47//123
f 48//124 46//124 35//124
f 20//125 46//125 48//125
f 49//126 47//126 36//126
f 37//127 36//127 47//127
f 47//128 49//128 50//128
f 49//129 36//129 13//129
f 23//130 50//130 22//130
f 20//131 48//131 53//131
f 55//132 109//132 39//132
f 55//133 52//133 54//133
f 30//134 57//134 42//134
f 30//135 56//135 57//135
f 40//136 56//136 30//136
f 56//137 20//137 51//137
f 42//138 55//138 39//138
f 42//139 58//139 55//139
f 60//140 61//140 59//140
f 62//141 63//141 64//141
f 16//142 66//142 60//142
f 67//143 78//143 61//143
f 64//144 63//144 65//144
f 71//145 70//145 72//145
f 12//146 68//146 17//146
f 68//147 67//147 61//147
f 73//148 71//148 72//148
f 69//149 71//149 68//149
f 71//150 67//150 68//150
f 75//151 74//151 73//151
f 73//152 74//152 67//152
f 78//153 65//153 63//153
f 74//154 77//154 76//154
f 102//155 77//155 75//155
f 85//156 83//156 64//156
f 80//157 79//157 78//157
f 82//158 81//158 80//158
f 83//159 60//159 64//159
f 73//160 94//160 75//160
f 84//161 85//161 97//161
f 64//162 65//162 86//162
f 25//163 16//163 60//163
f 88//164 24//164 91//164
f 70//165 88//165 90//165
f 24//166 92//166 91//166
f 92//167 93//167 73//167
f 86//168 85//168 64//168
f 95//169 110//169 94//169
f 81//170 86//170 79//170
f 102//171 105//171 76//171
f 98//172 81//172 82//172
f 99//173 92//173 84//173
f 95//174 93//174 99//174
f 99//175 84//175 97//175
f 99//176 97//176 96//176
f 38//177 68//177 12//177
f 100//178 38//178 101//178
f 100//179 68//179 38//179
f 68//180 101//180 69//180
f 101//181 70//181 69//181
f 103//182 102//182 110//182
f 76//183 107//183 78//183
f 112//184 110//184 99//184
f 107//185 80//185 78//185
f 107//186 82//186 80//186
f 48//187 50//187 88//187
f 53//188 48//188 89//188
f 48//189 88//189 89//189
f 109//190 89//190 108//190
f 109//191 108//191 101//191
f 110//192 102//192 75//192
f 111//193 104//193 103//193
f 99//194 110//194 95//194
f 104//195 96//195 106//195
f 98//196 97//196 81//196
f 112//197 99//197 96//197
f 96//198 98//198 107//198
f 96//199 107//199 106//199
f 7//200 5//200 9//200
f 2//201 28//201 27//201
f 27//202 28//202 30//202
f 32//203 33//203 35//203
f 37//204 12//204 11//204
f 31//205 35//205 46//205
f 59//206 61//206 78//206
f 16//207 15//207 66//207
f 71//208 69//208 70//208
f 73//209 67//209 71//209
f 75//210 77//210 74//210
f 78//211 79//211 65//211
f 85//212 84//212 83//212
f 73//213 93//213 94//213
f 86//214 97//214 85//214
f 81//215 97//215 86//215
f 102//216 103//216 105//216
f 76//217 105//217 107//217
f 112//218 111//218 110//218
f 104//219 112//219 96//219
f 98//220 96//220 97//220
